<svg xmlns="http://www.w3.org/2000/svg" width="54.933" height="389.507" viewBox="0 0 54.933 389.507">
  <g id="Group_42393" data-name="Group 42393" transform="translate(-963.866 -1158)">
    <g id="Group_42275" data-name="Group 42275" transform="translate(0 -72.494)">
      <g id="Group_42226" data-name="Group 42226" transform="translate(1027.973 1243.083) rotate(90)">
        <g id="Group_41969" data-name="Group 41969">
          <path id="Path_36948" data-name="Path 36948" d="M237.5,64.107l-1.061-1.061,23.027-23.026h96.815l17.381-17.381,1.061,1.061-17.82,17.821H260.092Z" fill="#cda26f"/>
        </g>
        <g id="Group_41970" data-name="Group 41970">
          <path id="Path_36949" data-name="Path 36949" d="M376.092,25.263a2.82,2.82,0,1,0-3.988,0A2.819,2.819,0,0,0,376.092,25.263Z" fill="#cda26f"/>
        </g>
      </g>
      <g id="Group_42227" data-name="Group 42227" transform="translate(946.993 1656.289) rotate(-135)">
        <g id="Group_41924" data-name="Group 41924">
          <path id="Path_36922" data-name="Path 36922" d="M56.917,114.055H38.689L30.2,105.567l1.06-1.061,8.047,8.048H56.917Z" fill="#cda26f"/>
        </g>
        <g id="Group_41925" data-name="Group 41925">
          <path id="Path_36923" data-name="Path 36923" d="M32.827,103.143a2.82,2.82,0,1,0,0,3.988A2.82,2.82,0,0,0,32.827,103.143Z" fill="#cda26f"/>
        </g>
      </g>
      <g id="Group_42228" data-name="Group 42228" transform="translate(977.303 1558.792) rotate(90)">
        <g id="Group_41948" data-name="Group 41948" transform="translate(0 2.069)">
          <path id="Path_36936" data-name="Path 36936" d="M46.559,0H9.173L0,9.173l1.061,1.061L9.794,1.5H46.559Z" fill="#cda26f"/>
        </g>
        <g id="Group_41949" data-name="Group 41949" transform="translate(43.599)">
          <path id="Path_36937" data-name="Path 36937" d="M2.82,0A2.82,2.82,0,1,1,0,2.82,2.82,2.82,0,0,1,2.82,0Z" fill="#cda26f"/>
        </g>
      </g>
      <g id="Group_42229" data-name="Group 42229" transform="translate(982.247 1230.494) rotate(90)">
        <g id="Group_41942" data-name="Group 41942" transform="translate(0 2.07)">
          <path id="Path_36933" data-name="Path 36933" d="M43.944,0H14.114L0,14.116l1.061,1.061L14.735,1.5H43.944Z" transform="translate(0 0)" fill="#cda26f"/>
        </g>
        <g id="Group_41943" data-name="Group 41943" transform="translate(40.984 0)">
          <path id="Path_36934" data-name="Path 36934" d="M2.82,0A2.82,2.82,0,1,1,0,2.82,2.821,2.821,0,0,1,2.82,0Z" transform="translate(0 0)" fill="#cda26f"/>
        </g>
      </g>
      <g id="Group_42230" data-name="Group 42230" transform="translate(1052.398 1140.722) rotate(90)">
        <g id="Group_41927" data-name="Group 41927">
          <path id="Path_36924" data-name="Path 36924" d="M325.865,73.767l-9.32-9.319H213.184L198.879,50.141H137.724l-23.58,23.582-1.061-1.061L137.1,48.641h62.4l14.306,14.307h103.36l9.76,9.758Z" fill="#cda26f"/>
        </g>
        <g id="Group_41928" data-name="Group 41928">
          <path id="Path_36925" data-name="Path 36925" d="M324.3,75.131a2.82,2.82,0,1,0,0-3.988A2.819,2.819,0,0,0,324.3,75.131Z" fill="#cda26f"/>
        </g>
      </g>
    </g>
    <g id="Group_41968" data-name="Group 41968" transform="translate(1018.799 1325.299) rotate(90)">
      <g id="Group_41966" data-name="Group 41966" transform="translate(0 2.07)">
        <path id="Path_36946" data-name="Path 36946" d="M87.548,0H27.818L0,27.819l1.061,1.061L28.439,1.5H87.548Z" fill="#cda26f"/>
      </g>
      <g id="Group_41967" data-name="Group 41967" transform="translate(84.587)">
        <path id="Path_36947" data-name="Path 36947" d="M2.82,0A2.82,2.82,0,1,1,0,2.82,2.821,2.821,0,0,1,2.82,0Z" fill="#cda26f"/>
      </g>
    </g>
  </g>
</svg>
