<svg xmlns="http://www.w3.org/2000/svg" width="54.933" height="389.506" viewBox="0 0 54.933 389.506">
  <g id="Group_42394" data-name="Group 42394" transform="translate(0 0)">
    <g id="Group_42275" data-name="Group 42275" transform="translate(10.964 0)">
      <g id="Group_42226" data-name="Group 42226" transform="translate(0.311 140.474) rotate(-90)">
        <g id="Group_41969" data-name="Group 41969" transform="translate(0 2.189)">
          <path id="Path_36948" data-name="Path 36948" d="M1.061,41.468,0,40.407,23.027,17.381h96.815L137.223,0l1.061,1.06-17.82,17.821H23.648Z" fill="#cda26f"/>
        </g>
        <g id="Group_41970" data-name="Group 41970" transform="translate(134.835 0)">
          <path id="Path_36949" data-name="Path 36949" d="M4.814,4.813a2.82,2.82,0,1,0-3.988,0A2.819,2.819,0,0,0,4.814,4.813Z" transform="translate(0 0)" fill="#cda26f"/>
        </g>
      </g>
      <g id="Group_42227" data-name="Group 42227" transform="translate(8.3 55.869) rotate(45)">
        <g id="Group_41924" data-name="Group 41924" transform="translate(2.19 2.189)">
          <path id="Path_36922" data-name="Path 36922" d="M26.714,9.548H8.486L0,1.06,1.06,0,9.107,8.048H26.714Z" transform="translate(0)" fill="#cda26f"/>
        </g>
        <g id="Group_41925" data-name="Group 41925" transform="translate(0 0)">
          <path id="Path_36923" data-name="Path 36923" d="M4.814.826a2.82,2.82,0,1,0,0,3.988A2.82,2.82,0,0,0,4.814.826Z" fill="#cda26f"/>
        </g>
      </g>
      <g id="Group_42228" data-name="Group 42228" transform="translate(30.531 61.208) rotate(-90)">
        <g id="Group_41948" data-name="Group 41948" transform="translate(0 2.069)">
          <path id="Path_36936" data-name="Path 36936" d="M46.559,0H9.173L0,9.173l1.061,1.061L9.794,1.5H46.559Z" fill="#cda26f"/>
        </g>
        <g id="Group_41949" data-name="Group 41949" transform="translate(43.599 0)">
          <path id="Path_36937" data-name="Path 36937" d="M2.82,0A2.82,2.82,0,1,1,0,2.82,2.82,2.82,0,0,1,2.82,0Z" transform="translate(0)" fill="#cda26f"/>
        </g>
      </g>
      <g id="Group_42229" data-name="Group 42229" transform="translate(25.587 389.506) rotate(-90)">
        <g id="Group_41942" data-name="Group 41942" transform="translate(0 2.07)">
          <path id="Path_36933" data-name="Path 36933" d="M43.944,0H14.114L0,14.116l1.061,1.061L14.735,1.5H43.944Z" fill="#cda26f"/>
        </g>
        <g id="Group_41943" data-name="Group 41943" transform="translate(40.984 0)">
          <path id="Path_36934" data-name="Path 36934" d="M2.82,0A2.82,2.82,0,1,1,0,2.82,2.821,2.821,0,0,1,2.82,0Z" fill="#cda26f"/>
        </g>
      </g>
      <g id="Group_42230" data-name="Group 42230" transform="translate(4.077 366.194) rotate(-90)">
        <g id="Group_41927" data-name="Group 41927" transform="translate(0 0)">
          <path id="Path_36924" data-name="Path 36924" d="M212.782,25.125l-9.32-9.319H100.1L85.8,1.5H24.641L1.061,25.081,0,24.021,24.02,0h62.4l14.306,14.307h103.36l9.76,9.758Z" transform="translate(0 0)" fill="#cda26f"/>
        </g>
        <g id="Group_41928" data-name="Group 41928" transform="translate(210.392 21.676)">
          <path id="Path_36925" data-name="Path 36925" d="M.827,4.814a2.82,2.82,0,1,0,0-3.988A2.819,2.819,0,0,0,.827,4.814Z" fill="#cda26f"/>
        </g>
      </g>
    </g>
    <g id="Group_41968" data-name="Group 41968" transform="translate(0 222.207) rotate(-90)">
      <g id="Group_41966" data-name="Group 41966" transform="translate(0 2.07)">
        <path id="Path_36946" data-name="Path 36946" d="M87.548,0H27.818L0,27.818l1.06,1.06L28.439,1.5H87.548Z" fill="#cda26f"/>
      </g>
      <g id="Group_41967" data-name="Group 41967" transform="translate(84.586 0)">
        <path id="Path_36947" data-name="Path 36947" d="M2.82,0A2.82,2.82,0,1,1,0,2.82,2.821,2.821,0,0,1,2.82,0Z" fill="#cda26f"/>
      </g>
    </g>
  </g>
</svg>
