<svg xmlns="http://www.w3.org/2000/svg" xmlns:xlink="http://www.w3.org/1999/xlink" width="1074" height="1165" viewBox="0 0 1074 1165">
  <defs>
    <clipPath id="clip-path">
      <rect id="SVGID" width="1074" height="1165" fill="#fff"/>
    </clipPath>
  </defs>
  <g id="Group_42222" data-name="Group 42222" opacity="0.2" style="mix-blend-mode: color-dodge;isolation: isolate">
    <g id="Group_42120" data-name="Group 42120">
      <g id="Group_42119" data-name="Group 42119">
        <g id="Group_42118" data-name="Group 42118" clip-path="url(#clip-path)">
          <g id="Group_42117" data-name="Group 42117" transform="translate(-217.696 146.744)" style="mix-blend-mode: color-dodge;isolation: isolate">
            <g id="Group_42030" data-name="Group 42030" opacity="0.07">
              <g id="Group_41988" data-name="Group 41988" transform="translate(16.252 7.487)">
                <path id="Path_37100" data-name="Path 37100" d="M416.49,101.762H488.7V96.942H418.249L358.814,30.725H226.535L201.152,3.3H86.3L18.78,76.658l3.1,3.366L88.226,8.168H199.312l25.3,27.424h132.36Z" transform="translate(-18.78 -3.302)" fill="#fff"/>
              </g>
              <g id="Group_41989" data-name="Group 41989" transform="translate(20.773 108.403)">
                <path id="Path_37101" data-name="Path 37101" d="M10.7,102.656H131.673l85.2-92.321h86.62l81.01,87.91H664.428l65.423-71.037h92.779V22.387H728.011l-65.47,70.992h-276.2l-81.01-87.91H215.025l-85.2,92.367H10.7Z" transform="translate(-10.701 -5.469)" fill="#fff"/>
              </g>
              <g id="Group_41990" data-name="Group 41990" transform="translate(16.333 54.829)">
                <path id="Path_37102" data-name="Path 37102" d="M653.631,219.295H843.586l33.425-36.337h137.346v-4.821H875.126l-33.384,36.292H655.514L541.332,90.545H366.959L287.627,4.318H76.685L41.247,42.793H6.23v4.866H43.178L78.529,9.184H285.782l79.333,86.227H539.53Z" transform="translate(-6.23 -4.318)" fill="#fff"/>
              </g>
              <g id="Group_41991" data-name="Group 41991" transform="translate(266.144 225.419)">
                <path id="Path_37103" data-name="Path 37103" d="M10.737,342.928H88.144l79.629-86.364H268.886L493.4,12.848h82.348V7.981H491.555L267.128,251.744h-101.2L86.386,338.061H10.737Z" transform="translate(-10.737 -7.981)" fill="#fff"/>
              </g>
              <g id="Group_41992" data-name="Group 41992" transform="translate(16.333 217.733)">
                <path id="Path_37104" data-name="Path 37104" d="M170.977,80.127H283.9l45.32-49.253H577.235V21.141H325.619l-45.4,49.253H174.58L117.028,7.816H16.665v9.641h96.674Z" transform="translate(-16.665 -7.816)" fill="#fff"/>
              </g>
              <g id="Group_41993" data-name="Group 41993" transform="translate(8.879 275.854)">
                <path id="Path_37105" data-name="Path 37105" d="M376.324,113.574H555.642V108.8H378.087L322.375,48.221H128.358L92.252,9.064H17.358v4.821H90.408l36.025,39.2h194.1Z" transform="translate(-17.358 -9.064)" fill="#fff"/>
              </g>
              <g id="Group_41994" data-name="Group 41994" transform="translate(10.388 275.854)">
                <path id="Path_37106" data-name="Path 37106" d="M235.591,203.03h79.333L484.608,18.751H594.347l81.387,88.41h266.9l45.321,49.206h64.3v-9.687h-60.61L946.279,97.475H679.419L598.036,9.064H480.919L311.239,193.344H239.276L203,153.866H5.468v9.686H199.232Z" transform="translate(-5.468 -9.064)" fill="#fff"/>
              </g>
              <g id="Group_41995" data-name="Group 41995" transform="translate(16.333 290.771)">
                <path id="Path_37107" data-name="Path 37107" d="M335.233,165.195h293L762.77,19.117H918.546V9.385H759.082L624.5,155.55H339L276.175,87.288H8.518v9.733H272.487Z" transform="translate(-8.518 -9.385)" fill="#fff"/>
              </g>
              <g id="Group_41996" data-name="Group 41996" transform="translate(703.315 403.784)">
                <path id="Path_37108" data-name="Path 37108" d="M260.307,88.582h99.02V83.715H262.108l-66.139-71.9H5.468v4.867H194.126Z" transform="translate(-5.468 -11.812)" fill="#fff"/>
              </g>
              <g id="Group_41997" data-name="Group 41997" transform="translate(0 495.061)">
                <path id="Path_37109" data-name="Path 37109" d="M91.609,197.732H432.44L529.114,92.856h174L771.47,18.638H840.5V13.772H769.626L701.269,87.99H527.274L430.681,192.865H93.453L32.465,126.741H10.77v4.82H30.625Z" transform="translate(-10.77 -13.772)" fill="#fff"/>
              </g>
              <g id="Group_41998" data-name="Group 41998" transform="translate(4.439 549.906)">
                <path id="Path_37110" data-name="Path 37110" d="M136.559,273.267H423.943l29.741-32.291H609.836L813.491,19.816h274.732l41.007,44.525,3.141-3.46-42.263-45.932H811.728L607.953,236.109H451.84l-29.7,32.291H138.489l-22.368-24.24H3.7v4.867H114.277Z" transform="translate(-3.697 -14.949)" fill="#fff"/>
              </g>
              <g id="Group_41999" data-name="Group 41999" transform="translate(8.879 398.191)">
                <path id="Path_37111" data-name="Path 37111" d="M652.419,216.71H888.24v-4.867H654.22l-86.2-93.643H258.728L160.544,11.691H9.419v4.82H158.7l98.1,106.556H566.133Z" transform="translate(-9.419 -11.691)" fill="#fff"/>
              </g>
              <g id="Group_42000" data-name="Group 42000" transform="translate(477.309 93.885)">
                <path id="Path_37112" data-name="Path 37112" d="M18.571,14.8c0,5.356,3.9,9.733,8.879,9.733,4.933,0,8.964-4.378,8.964-9.733s-4.032-9.64-8.964-9.64C22.474,5.157,18.571,9.441,18.571,14.8Z" transform="translate(-18.571 -5.157)" fill="#fff"/>
              </g>
              <g id="Group_42001" data-name="Group 42001" transform="translate(823.746 118.846)">
                <path id="Path_37113" data-name="Path 37113" d="M10.494,15.333c0,5.4,4.032,9.733,8.964,9.733,4.89,0,8.879-4.331,8.879-9.733,0-5.262-3.989-9.64-8.879-9.64C14.526,5.693,10.494,10.071,10.494,15.333Z" transform="translate(-10.494 -5.693)" fill="#fff"/>
              </g>
              <g id="Group_42002" data-name="Group 42002" transform="translate(820.744 220.555)">
                <path id="Path_37114" data-name="Path 37114" d="M10.561,17.61c0,5.309,4.032,9.64,9.007,9.64,4.933,0,8.964-4.331,8.964-9.64,0-5.356-4.032-9.733-8.964-9.733C14.593,7.877,10.561,12.255,10.561,17.61Z" transform="translate(-10.561 -7.877)" fill="#fff"/>
              </g>
              <g id="Group_42003" data-name="Group 42003" transform="translate(1046.784 468.399)">
                <path id="Path_37115" data-name="Path 37115" d="M5.294,22.886c0,5.356,3.989,9.687,8.879,9.687,4.933,0,8.964-4.331,8.964-9.687S19.105,13.2,14.173,13.2C9.283,13.2,5.294,17.53,5.294,22.886Z" transform="translate(-5.294 -13.199)" fill="#fff"/>
              </g>
              <g id="Group_42004" data-name="Group 42004" transform="translate(694.372 396.486)">
                <ellipse id="Ellipse_403" data-name="Ellipse 403" cx="8.943" cy="9.71" rx="8.943" ry="9.71" fill="#fff"/>
              </g>
              <g id="Group_42005" data-name="Group 42005" transform="translate(819.328 486.934)">
                <path id="Path_37116" data-name="Path 37116" d="M10.6,23.33c0,5.356,3.946,9.64,8.879,9.64,4.975,0,8.879-4.284,8.879-9.64,0-5.4-3.9-9.733-8.879-9.733C14.545,13.6,10.6,17.928,10.6,23.33Z" transform="translate(-10.599 -13.597)" fill="#fff"/>
              </g>
              <g id="Group_42006" data-name="Group 42006" transform="translate(802.944 545.053)">
                <path id="Path_37117" data-name="Path 37117" d="M10.98,24.578c0,5.309,3.989,9.64,8.836,9.64,4.975,0,8.964-4.331,8.964-9.64,0-5.356-3.989-9.733-8.964-9.733C14.969,14.845,10.98,19.223,10.98,24.578Z" transform="translate(-10.98 -14.845)" fill="#fff"/>
              </g>
              <g id="Group_42007" data-name="Group 42007" transform="translate(415.974 460.296)">
                <path id="Path_37118" data-name="Path 37118" d="M20,22.712c0,5.4,4.032,9.687,8.921,9.687S37.8,28.114,37.8,22.712c0-5.309-3.989-9.687-8.879-9.687S20,17.4,20,22.712Z" transform="translate(-20.002 -13.025)" fill="#fff"/>
              </g>
              <g id="Group_42008" data-name="Group 42008" transform="translate(304.412 305.358)">
                <path id="Path_37119" data-name="Path 37119" d="M22.6,19.338c0,5.356,4.032,9.687,8.921,9.687,4.933,0,8.922-4.331,8.922-9.687S36.456,9.7,31.523,9.7C26.634,9.7,22.6,13.982,22.6,19.338Z" transform="translate(-22.602 -9.698)" fill="#fff"/>
              </g>
              <g id="Group_42009" data-name="Group 42009" transform="translate(664.703 189.074)">
                <path id="Path_37120" data-name="Path 37120" d="M14.2,16.841c0,5.4,3.946,9.733,8.879,9.733s8.879-4.331,8.879-9.733c0-5.262-3.946-9.64-8.879-9.64S14.2,11.579,14.2,16.841Z" transform="translate(-14.204 -7.201)" fill="#fff"/>
              </g>
              <g id="Group_42010" data-name="Group 42010" transform="translate(537.572 366.691)">
                <path id="Path_37121" data-name="Path 37121" d="M17.168,20.7c0,5.356,3.946,9.733,8.836,9.733,4.933,0,8.922-4.378,8.922-9.733S30.936,11.015,26,11.015C21.114,11.015,17.168,15.346,17.168,20.7Z" transform="translate(-17.168 -11.015)" fill="#fff"/>
              </g>
              <g id="Group_42011" data-name="Group 42011" transform="translate(507.462 561.586)">
                <path id="Path_37122" data-name="Path 37122" d="M17.87,24.887c0,5.356,3.946,9.733,8.879,9.733,4.847,0,8.879-4.378,8.879-9.733,0-5.309-4.032-9.687-8.879-9.687C21.816,15.2,17.87,19.578,17.87,24.887Z" transform="translate(-17.87 -15.2)" fill="#fff"/>
              </g>
              <g id="Group_42012" data-name="Group 42012" transform="translate(411.856 664.505)">
                <path id="Path_37123" data-name="Path 37123" d="M20.1,27.05c0,5.4,4.032,9.733,8.921,9.733,4.933,0,8.964-4.331,8.964-9.733,0-5.262-4.032-9.64-8.964-9.64C24.128,17.41,20.1,21.788,20.1,27.05Z" transform="translate(-20.096 -17.41)" fill="#fff"/>
              </g>
              <g id="Group_42013" data-name="Group 42013" transform="translate(1124.847 588.643)">
                <path id="Path_37124" data-name="Path 37124" d="M3.474,25.468c0,5.356,3.989,9.687,8.879,9.687,4.975,0,8.964-4.331,8.964-9.687,0-5.309-3.989-9.687-8.964-9.687C7.463,15.781,3.474,20.159,3.474,25.468Z" transform="translate(-3.474 -15.781)" fill="#fff"/>
              </g>
              <g id="Group_42014" data-name="Group 42014" transform="translate(877.318 590.226)">
                <path id="Path_37125" data-name="Path 37125" d="M9.246,25.5c0,5.4,3.989,9.687,8.879,9.687,4.933,0,8.922-4.284,8.922-9.687,0-5.309-3.989-9.687-8.922-9.687C13.235,15.815,9.246,20.193,9.246,25.5Z" transform="translate(-9.246 -15.815)" fill="#fff"/>
              </g>
              <g id="Group_42015" data-name="Group 42015" transform="translate(263.15 545.892)">
                <path id="Path_37126" data-name="Path 37126" d="M23.565,24.456c0,5.449,3.989,9.687,8.922,9.687,4.975,0,8.879-4.238,8.879-9.687,0-5.216-3.9-9.593-8.879-9.593C27.554,14.863,23.565,19.241,23.565,24.456Z" transform="translate(-23.565 -14.863)" fill="#fff"/>
              </g>
              <g id="Group_42016" data-name="Group 42016" transform="translate(73.225 268.196)">
                <path id="Path_37127" data-name="Path 37127" d="M27.992,18.587c0,5.4,3.989,9.593,8.964,9.593,4.932,0,8.878-4.191,8.878-9.593,0-5.309-3.946-9.687-8.878-9.687C31.981,8.9,27.992,13.278,27.992,18.587Z" transform="translate(-27.992 -8.9)" fill="#fff"/>
              </g>
              <g id="Group_42017" data-name="Group 42017" transform="translate(557.602 497.552)">
                <path id="Path_37128" data-name="Path 37128" d="M16.7,23.465c0,5.356,3.989,9.733,8.879,9.733,4.933,0,8.964-4.378,8.964-9.733,0-5.309-4.032-9.64-8.964-9.64C20.688,13.825,16.7,18.156,16.7,23.465Z" transform="translate(-16.699 -13.825)" fill="#fff"/>
              </g>
              <g id="Group_42018" data-name="Group 42018" transform="translate(541.604 133.795)">
                <path id="Path_37129" data-name="Path 37129" d="M17.071,15.654c0,5.356,3.989,9.733,8.922,9.733s8.964-4.378,8.964-9.733-4.032-9.64-8.964-9.64S17.071,10.3,17.071,15.654Z" transform="translate(-17.071 -6.014)" fill="#fff"/>
              </g>
              <g id="Group_42019" data-name="Group 42019" transform="translate(345.245 28.454)">
                <path id="Path_37130" data-name="Path 37130" d="M21.648,13.485c0,5.309,3.989,9.64,8.964,9.64,4.933,0,8.964-4.331,8.964-9.64,0-5.356-4.032-9.733-8.964-9.733C25.637,3.752,21.648,8.13,21.648,13.485Z" transform="translate(-21.648 -3.752)" fill="#fff"/>
              </g>
              <g id="Group_42020" data-name="Group 42020" transform="translate(188.561)">
                <path id="Path_37131" data-name="Path 37131" d="M25.3,12.874c0,5.309,4.032,9.64,8.964,9.64,4.847,0,8.879-4.331,8.879-9.64,0-5.4-4.032-9.733-8.879-9.733C29.335,3.141,25.3,7.472,25.3,12.874Z" transform="translate(-25.303 -3.141)" fill="#fff"/>
              </g>
              <g id="Group_42021" data-name="Group 42021" transform="translate(75.799)">
                <path id="Path_37132" data-name="Path 37132" d="M27.932,12.874c0,5.309,4.032,9.64,8.964,9.64,4.975,0,8.879-4.331,8.879-9.64,0-5.4-3.9-9.733-8.879-9.733C31.964,3.141,27.932,7.472,27.932,12.874Z" transform="translate(-27.932 -3.141)" fill="#fff"/>
              </g>
              <g id="Group_42022" data-name="Group 42022" transform="translate(77.986 46.058)">
                <path id="Path_37133" data-name="Path 37133" d="M27.879,13.77c0,5.356,4.032,9.733,8.964,9.733s8.964-4.378,8.964-9.733-4.032-9.64-8.964-9.64S27.879,8.414,27.879,13.77Z" transform="translate(-27.879 -4.13)" fill="#fff"/>
              </g>
              <g id="Group_42023" data-name="Group 42023" transform="translate(217.985 101.662)">
                <path id="Path_37134" data-name="Path 37134" d="M24.617,15.057c0,5.356,3.989,9.64,8.964,9.64,4.933,0,8.879-4.284,8.879-9.64s-3.946-9.733-8.879-9.733C28.606,5.324,24.617,9.7,24.617,15.057Z" transform="translate(-24.617 -5.324)" fill="#fff"/>
              </g>
              <g id="Group_42024" data-name="Group 42024" transform="translate(386.593 189.074)">
                <path id="Path_37135" data-name="Path 37135" d="M20.685,16.841c0,5.4,3.946,9.733,8.879,9.733,4.975,0,9.007-4.331,9.007-9.733,0-5.262-4.032-9.64-9.007-9.64C24.631,7.2,20.685,11.579,20.685,16.841Z" transform="translate(-20.685 -7.201)" fill="#fff"/>
              </g>
              <g id="Group_42025" data-name="Group 42025" transform="translate(1013.285 221.44)">
                <path id="Path_37136" data-name="Path 37136" d="M6.074,17.536c0,5.356,4.032,9.733,8.964,9.733s8.922-4.378,8.922-9.733S19.971,7.9,15.038,7.9,6.074,12.18,6.074,17.536Z" transform="translate(-6.074 -7.896)" fill="#fff"/>
              </g>
              <g id="Group_42026" data-name="Group 42026" transform="translate(913.004 281.887)">
                <path id="Path_37137" data-name="Path 37137" d="M8.241,22.932c0,7.637,5.619,13.785,12.61,13.785s12.61-6.147,12.61-13.785c0-7.544-5.619-13.738-12.61-13.738S8.241,15.388,8.241,22.932Z" transform="translate(-8.241 -9.194)" fill="#fff"/>
              </g>
              <g id="Group_42027" data-name="Group 42027" transform="translate(563.393 222.65)">
                <path id="Path_37138" data-name="Path 37138" d="M16.391,21.567c0,7.544,5.619,13.738,12.61,13.738,6.949,0,12.653-6.194,12.653-13.738S35.95,7.922,29,7.922C22.01,7.922,16.391,14.023,16.391,21.567Z" transform="translate(-16.391 -7.922)" fill="#fff"/>
              </g>
              <g id="Group_42028" data-name="Group 42028" transform="translate(313.548 223.209)">
                <path id="Path_37139" data-name="Path 37139" d="M22.217,21.672c0,7.591,5.619,13.645,12.653,13.645,6.948,0,12.567-6.054,12.567-13.645,0-7.637-5.619-13.738-12.567-13.738C27.836,7.934,22.217,14.035,22.217,21.672Z" transform="translate(-22.217 -7.934)" fill="#fff"/>
              </g>
              <g id="Group_42029" data-name="Group 42029" transform="translate(1046.012 405.483)">
                <path id="Path_37140" data-name="Path 37140" d="M5.139,25.54c0,7.591,5.7,13.645,12.653,13.645S30.4,33.13,30.4,25.54s-5.662-13.692-12.61-13.692S5.139,17.949,5.139,25.54Z" transform="translate(-5.139 -11.848)" fill="#fff"/>
              </g>
            </g>
            <g id="Group_42073" data-name="Group 42073" transform="translate(148.779 105.201)" opacity="0.2">
              <g id="Group_42031" data-name="Group 42031" transform="translate(12.065 5.566)">
                <path id="Path_37141" data-name="Path 37141" d="M312.346,78.331h53.448V74.783H313.689L269.746,25.8H171.815L153.136,5.52H68.189L18.263,59.775l2.26,2.5L69.531,9.112h82.181L170.477,29.4h97.888Z" transform="translate(-18.263 -5.52)" fill="#fff"/>
              </g>
              <g id="Group_42032" data-name="Group 42032" transform="translate(15.415 80.196)">
                <path id="Path_37142" data-name="Path 37142" d="M12.288,79.024h89.468l63-68.309h64L288.7,75.749h207l48.421-52.528h68.61V19.629H542.74L494.358,72.156H290.038L230.183,7.122H163.332l-63,68.309H12.288Z" transform="translate(-12.288 -7.122)" fill="#fff"/>
              </g>
              <g id="Group_42033" data-name="Group 42033" transform="translate(12.065 40.585)">
                <path id="Path_37143" data-name="Path 37143" d="M487.787,165.264H628.314l24.714-26.878H754.6v-3.547H651.647l-24.714,26.832H489.211L404.766,70.033H275.837L217.071,6.271H61.086l-26.22,28.47H8.981v3.593H36.291L62.51,9.864H215.733l58.723,63.761H403.428Z" transform="translate(-8.981 -6.271)" fill="#fff"/>
              </g>
              <g id="Group_42034" data-name="Group 42034" transform="translate(196.869 166.742)">
                <path id="Path_37144" data-name="Path 37144" d="M12.315,256.7H69.529l58.938-63.852h74.765L369.27,12.573h60.863V8.98H367.889l-166,180.278h-74.85L68.191,253.11H12.315Z" transform="translate(-12.315 -8.98)" fill="#fff"/>
              </g>
              <g id="Group_42035" data-name="Group 42035" transform="translate(12.065 161.057)">
                <path id="Path_37145" data-name="Path 37145" d="M130.881,62.339H214.4l33.511-36.426H431.333V18.727H245.23L211.637,55.155H133.561L90.918,8.858H16.7V16H88.156Z" transform="translate(-16.698 -8.858)" fill="#fff"/>
              </g>
              <g id="Group_42036" data-name="Group 42036" transform="translate(6.537 204.034)">
                <path id="Path_37146" data-name="Path 37146" d="M282.73,87.094H415.342V83.546H284.068L242.81,38.75H99.307L72.667,9.781H17.212v3.593H71.243L97.969,42.345h143.5Z" transform="translate(-17.212 -9.781)" fill="#fff"/>
              </g>
              <g id="Group_42037" data-name="Group 42037" transform="translate(7.708 204.034)">
                <path id="Path_37147" data-name="Path 37147" d="M178.56,153.265h58.723l125.493-136.3h81.134l60.233,65.4H701.515l33.508,36.385h47.583v-7.186H737.788L704.238,75.177H506.824l-60.147-65.4H360.053L234.521,146.08H181.327l-26.893-29.195H8.417v7.186h143.25Z" transform="translate(-8.417 -9.781)" fill="#fff"/>
              </g>
              <g id="Group_42038" data-name="Group 42038" transform="translate(12.066 215.087)">
                <path id="Path_37148" data-name="Path 37148" d="M252.355,125.26H469.036L568.515,17.2H683.744V10.019H565.792l-99.522,108.1H255.122L208.627,67.639H10.673v7.186H205.861Z" transform="translate(-10.673 -10.019)" fill="#fff"/>
              </g>
              <g id="Group_42039" data-name="Group 42039" transform="translate(520.188 298.676)">
                <path id="Path_37149" data-name="Path 37149" d="M196.867,68.568h73.26V64.978H198.2L149.282,11.813H8.417V15.4H147.944Z" transform="translate(-8.417 -11.813)" fill="#fff"/>
              </g>
              <g id="Group_42040" data-name="Group 42040" transform="translate(0 366.165)">
                <path id="Path_37150" data-name="Path 37150" d="M72.151,149.335H324.227l71.5-77.585H524.4l50.514-54.9h51.1V13.263h-52.44L523.06,68.155H394.385l-71.5,77.585H73.494L28.423,96.8H12.339v3.6H27.085Z" transform="translate(-12.339 -13.263)" fill="#fff"/>
              </g>
              <g id="Group_42041" data-name="Group 42041" transform="translate(3.268 406.732)">
                <path id="Path_37151" data-name="Path 37151" d="M105.373,205.187H317.95L339.9,181.31H455.418L606.045,17.724h203.19l30.326,32.93,2.3-2.547L810.618,14.134H604.7L454.037,177.72H338.555L316.607,201.6H106.8l-16.5-17.92H7.108v3.6h81.76Z" transform="translate(-7.108 -14.134)" fill="#fff"/>
              </g>
              <g id="Group_42042" data-name="Group 42042" transform="translate(6.537 294.536)">
                <path id="Path_37152" data-name="Path 37152" d="M486.916,163.351h174.42v-3.6H488.258l-63.75-69.263H195.723L123.176,11.725H11.34v3.549H121.833L194.3,94.088H423.123Z" transform="translate(-11.34 -11.725)" fill="#fff"/>
              </g>
              <g id="Group_42043" data-name="Group 42043" transform="translate(353.021 69.482)">
                <path id="Path_37153" data-name="Path 37153" d="M18.108,14.017c0,3.958,2.874,7.172,6.562,7.172a6.972,6.972,0,0,0,6.648-7.172A6.929,6.929,0,0,0,24.67,6.892C20.982,6.892,18.108,10.059,18.108,14.017Z" transform="translate(-18.108 -6.892)" fill="#fff"/>
              </g>
              <g id="Group_42044" data-name="Group 42044" transform="translate(609.257 87.924)">
                <path id="Path_37154" data-name="Path 37154" d="M12.135,14.413c0,3.958,2.96,7.218,6.605,7.218s6.562-3.26,6.562-7.218A6.862,6.862,0,0,0,18.74,7.288,6.9,6.9,0,0,0,12.135,14.413Z" transform="translate(-12.135 -7.288)" fill="#fff"/>
              </g>
              <g id="Group_42045" data-name="Group 42045" transform="translate(607.069 163.134)">
                <path id="Path_37155" data-name="Path 37155" d="M12.185,16.121a6.839,6.839,0,0,0,6.605,7.125A6.9,6.9,0,0,0,25.4,16.121c0-3.958-3-7.218-6.605-7.218C15.1,8.9,12.185,12.163,12.185,16.121Z" transform="translate(-12.185 -8.903)" fill="#fff"/>
              </g>
              <g id="Group_42046" data-name="Group 42046" transform="translate(774.176 346.48)">
                <path id="Path_37156" data-name="Path 37156" d="M8.289,19.965a6.915,6.915,0,0,0,6.648,7.172c3.6,0,6.563-3.213,6.563-7.172a6.86,6.86,0,0,0-6.563-7.125A6.873,6.873,0,0,0,8.289,19.965Z" transform="translate(-8.289 -12.84)" fill="#fff"/>
              </g>
              <g id="Group_42047" data-name="Group 42047" transform="translate(513.565 293.25)">
                <path id="Path_37157" data-name="Path 37157" d="M14.365,18.915c0,3.912,3,7.172,6.605,7.172,3.689,0,6.605-3.26,6.605-7.172,0-3.958-2.917-7.218-6.605-7.218C17.367,11.7,14.365,14.957,14.365,18.915Z" transform="translate(-14.365 -11.697)" fill="#fff"/>
              </g>
              <g id="Group_42048" data-name="Group 42048" transform="translate(605.954 360.171)">
                <path id="Path_37158" data-name="Path 37158" d="M12.212,20.306a6.867,6.867,0,0,0,6.605,7.125,6.833,6.833,0,0,0,6.562-7.125c0-3.958-2.917-7.172-6.562-7.172A6.909,6.909,0,0,0,12.212,20.306Z" transform="translate(-12.212 -13.134)" fill="#fff"/>
              </g>
              <g id="Group_42049" data-name="Group 42049" transform="translate(593.816 403.155)">
                <path id="Path_37159" data-name="Path 37159" d="M12.493,21.229A6.923,6.923,0,0,0,19.1,28.354a6.929,6.929,0,0,0,6.648-7.125A6.972,6.972,0,0,0,19.1,14.057C15.538,14.057,12.493,17.27,12.493,21.229Z" transform="translate(-12.493 -14.057)" fill="#fff"/>
              </g>
              <g id="Group_42050" data-name="Group 42050" transform="translate(307.641 340.472)">
                <path id="Path_37160" data-name="Path 37160" d="M19.167,19.883a6.915,6.915,0,0,0,6.648,7.172c3.6,0,6.52-3.213,6.52-7.172s-2.917-7.172-6.52-7.172A6.915,6.915,0,0,0,19.167,19.883Z" transform="translate(-19.167 -12.711)" fill="#fff"/>
              </g>
              <g id="Group_42051" data-name="Group 42051" transform="translate(225.118 225.864)">
                <path id="Path_37161" data-name="Path 37161" d="M21.09,17.375c0,3.958,3,7.218,6.605,7.218,3.689,0,6.605-3.26,6.605-7.218A6.839,6.839,0,0,0,27.7,10.25,6.9,6.9,0,0,0,21.09,17.375Z" transform="translate(-21.09 -10.25)" fill="#fff"/>
              </g>
              <g id="Group_42052" data-name="Group 42052" transform="translate(491.605 139.849)">
                <path id="Path_37162" data-name="Path 37162" d="M14.878,15.575c0,4,2.96,7.172,6.562,7.172,3.689,0,6.605-3.167,6.605-7.172,0-3.912-2.917-7.172-6.605-7.172C17.838,8.4,14.878,11.663,14.878,15.575Z" transform="translate(-14.878 -8.403)" fill="#fff"/>
              </g>
              <g id="Group_42053" data-name="Group 42053" transform="translate(397.586 271.223)">
                <path id="Path_37163" data-name="Path 37163" d="M17.071,18.4c0,3.958,2.874,7.172,6.562,7.172,3.6,0,6.563-3.213,6.563-7.172s-2.96-7.172-6.563-7.172C19.945,11.224,17.071,14.437,17.071,18.4Z" transform="translate(-17.071 -11.224)" fill="#fff"/>
              </g>
              <g id="Group_42054" data-name="Group 42054" transform="translate(375.325 415.356)">
                <path id="Path_37164" data-name="Path 37164" d="M17.59,21.537c0,3.958,2.917,7.172,6.562,7.172,3.6,0,6.562-3.213,6.562-7.172s-2.96-7.218-6.562-7.218C20.507,14.319,17.59,17.579,17.59,21.537Z" transform="translate(-17.59 -14.319)" fill="#fff"/>
              </g>
              <g id="Group_42055" data-name="Group 42055" transform="translate(304.596 491.498)">
                <path id="Path_37165" data-name="Path 37165" d="M19.235,23.079c0,4.005,2.96,7.218,6.605,7.218a6.99,6.99,0,0,0,6.691-7.218,6.966,6.966,0,0,0-6.691-7.125A6.9,6.9,0,0,0,19.235,23.079Z" transform="translate(-19.235 -15.954)" fill="#fff"/>
              </g>
              <g id="Group_42056" data-name="Group 42056" transform="translate(831.908 435.381)">
                <path id="Path_37166" data-name="Path 37166" d="M6.942,21.921a6.909,6.909,0,0,0,6.605,7.172A6.943,6.943,0,0,0,20.2,21.921a6.943,6.943,0,0,0-6.648-7.172A6.909,6.909,0,0,0,6.942,21.921Z" transform="translate(-6.942 -14.749)" fill="#fff"/>
              </g>
              <g id="Group_42057" data-name="Group 42057" transform="translate(648.846 436.546)">
                <path id="Path_37167" data-name="Path 37167" d="M11.212,21.992a6.867,6.867,0,0,0,6.605,7.125,6.833,6.833,0,0,0,6.562-7.125c0-3.958-2.917-7.218-6.562-7.218S11.212,18.034,11.212,21.992Z" transform="translate(-11.212 -14.774)" fill="#fff"/>
              </g>
              <g id="Group_42058" data-name="Group 42058" transform="translate(194.622 403.76)">
                <path id="Path_37168" data-name="Path 37168" d="M21.8,21.2a6.878,6.878,0,0,0,6.605,7.172c3.689,0,6.605-3.12,6.605-7.172a6.9,6.9,0,0,0-6.605-7.125C24.8,14.07,21.8,17.33,21.8,21.2Z" transform="translate(-21.801 -14.07)" fill="#fff"/>
              </g>
              <g id="Group_42059" data-name="Group 42059" transform="translate(54.108 198.387)">
                <path id="Path_37169" data-name="Path 37169" d="M25.076,16.832a6.9,6.9,0,0,0,6.648,7.125,6.867,6.867,0,0,0,6.605-7.125A6.909,6.909,0,0,0,31.724,9.66,6.943,6.943,0,0,0,25.076,16.832Z" transform="translate(-25.076 -9.66)" fill="#fff"/>
              </g>
              <g id="Group_42060" data-name="Group 42060" transform="translate(412.383 368.041)">
                <path id="Path_37170" data-name="Path 37170" d="M16.724,20.428A6.881,6.881,0,0,0,23.329,27.6c3.6,0,6.605-3.213,6.605-7.172A6.9,6.9,0,0,0,23.329,13.3,6.839,6.839,0,0,0,16.724,20.428Z" transform="translate(-16.724 -13.303)" fill="#fff"/>
              </g>
              <g id="Group_42061" data-name="Group 42061" transform="translate(400.545 98.961)">
                <path id="Path_37171" data-name="Path 37171" d="M17,14.7a6.943,6.943,0,0,0,6.648,7.172A6.909,6.909,0,0,0,30.253,14.7a6.909,6.909,0,0,0-6.605-7.172A6.943,6.943,0,0,0,17,14.7Z" transform="translate(-16.999 -7.525)" fill="#fff"/>
              </g>
              <g id="Group_42062" data-name="Group 42062" transform="translate(255.356 21.096)">
                <path id="Path_37172" data-name="Path 37172" d="M20.384,13.025a6.9,6.9,0,0,0,6.648,7.125,6.867,6.867,0,0,0,6.605-7.125,6.909,6.909,0,0,0-6.605-7.172A6.943,6.943,0,0,0,20.384,13.025Z" transform="translate(-20.384 -5.853)" fill="#fff"/>
              </g>
              <g id="Group_42063" data-name="Group 42063" transform="translate(139.463)">
                <path id="Path_37173" data-name="Path 37173" d="M23.086,12.618a6.929,6.929,0,0,0,6.648,7.125,6.9,6.9,0,0,0,6.605-7.125c0-3.958-3-7.218-6.605-7.218S23.086,8.66,23.086,12.618Z" transform="translate(-23.086 -5.4)" fill="#fff"/>
              </g>
              <g id="Group_42064" data-name="Group 42064" transform="translate(56.038)">
                <path id="Path_37174" data-name="Path 37174" d="M25.031,12.618a6.9,6.9,0,0,0,6.648,7.125,6.867,6.867,0,0,0,6.605-7.125c0-3.958-2.96-7.218-6.605-7.218S25.031,8.66,25.031,12.618Z" transform="translate(-25.031 -5.4)" fill="#fff"/>
              </g>
              <g id="Group_42065" data-name="Group 42065" transform="translate(57.711 34.089)">
                <path id="Path_37175" data-name="Path 37175" d="M24.992,13.257A6.909,6.909,0,0,0,31.6,20.429a6.972,6.972,0,0,0,6.648-7.172A6.929,6.929,0,0,0,31.6,6.132,6.867,6.867,0,0,0,24.992,13.257Z" transform="translate(-24.992 -6.132)" fill="#fff"/>
              </g>
              <g id="Group_42066" data-name="Group 42066" transform="translate(161.252 75.257)">
                <path id="Path_37176" data-name="Path 37176" d="M22.58,14.188a6.873,6.873,0,0,0,6.648,7.125c3.6,0,6.52-3.167,6.52-7.125s-2.917-7.172-6.52-7.172A6.915,6.915,0,0,0,22.58,14.188Z" transform="translate(-22.58 -7.016)" fill="#fff"/>
              </g>
              <g id="Group_42067" data-name="Group 42067" transform="translate(285.981 139.849)">
                <path id="Path_37177" data-name="Path 37177" d="M19.673,15.575c0,4,2.917,7.172,6.52,7.172,3.689,0,6.605-3.167,6.605-7.172,0-3.912-2.917-7.172-6.605-7.172C22.59,8.4,19.673,11.663,19.673,15.575Z" transform="translate(-19.673 -8.403)" fill="#fff"/>
              </g>
              <g id="Group_42068" data-name="Group 42068" transform="translate(749.427 163.786)">
                <path id="Path_37178" data-name="Path 37178" d="M8.866,16.042c0,3.958,3,7.218,6.605,7.218,3.646,0,6.605-3.26,6.605-7.218a6.867,6.867,0,0,0-6.605-7.125A6.9,6.9,0,0,0,8.866,16.042Z" transform="translate(-8.866 -8.917)" fill="#fff"/>
              </g>
              <g id="Group_42069" data-name="Group 42069" transform="translate(675.267 208.54)">
                <path id="Path_37179" data-name="Path 37179" d="M10.468,20.03c0,5.635,4.118,10.2,9.308,10.2s9.35-4.564,9.35-10.2c0-5.588-4.16-10.152-9.35-10.152S10.468,14.442,10.468,20.03Z" transform="translate(-10.468 -9.878)" fill="#fff"/>
              </g>
              <g id="Group_42070" data-name="Group 42070" transform="translate(416.63 164.718)">
                <path id="Path_37180" data-name="Path 37180" d="M16.495,19c0,5.588,4.2,10.152,9.35,10.152S35.282,24.584,35.282,19,30.992,8.937,25.845,8.937,16.495,13.408,16.495,19Z" transform="translate(-16.495 -8.937)" fill="#fff"/>
              </g>
              <g id="Group_42071" data-name="Group 42071" transform="translate(231.895 165.09)">
                <path id="Path_37181" data-name="Path 37181" d="M20.8,19.1c0,5.635,4.16,10.152,9.35,10.152,5.147,0,9.307-4.517,9.307-10.152,0-5.588-4.16-10.152-9.307-10.152C24.965,8.945,20.8,13.509,20.8,19.1Z" transform="translate(-20.805 -8.945)" fill="#fff"/>
              </g>
              <g id="Group_42072" data-name="Group 42072" transform="translate(773.661 299.91)">
                <path id="Path_37182" data-name="Path 37182" d="M8.174,21.992c0,5.588,4.16,10.059,9.308,10.059,5.19,0,9.35-4.471,9.35-10.059,0-5.682-4.161-10.152-9.35-10.152C12.334,11.84,8.174,16.311,8.174,21.992Z" transform="translate(-8.174 -11.84)" fill="#fff"/>
              </g>
            </g>
            <g id="Group_42116" data-name="Group 42116" transform="translate(202.394 143.156)">
              <g id="Group_42074" data-name="Group 42074" transform="translate(10.474 4.813)">
                <path id="Path_37183" data-name="Path 37183" d="M274.883,69.9h46.662V66.8H276.054l-38.367-42.75H152.2L135.858,6.318H61.719L18.077,53.707l2.007,2.183L62.895,9.456h71.792l16.337,17.737h85.488Z" transform="translate(-18.077 -6.318)" fill="#fff"/>
              </g>
              <g id="Group_42075" data-name="Group 42075" transform="translate(13.404 69.984)">
                <path id="Path_37184" data-name="Path 37184" d="M12.86,70.524H91.022l54.953-59.668h55.961l52.315,56.8H435.036l42.223-45.888h59.894V18.633H476.084l-42.3,45.888H255.426l-52.315-56.8H144.8L89.765,67.385H12.86Z" transform="translate(-12.86 -7.718)" fill="#fff"/>
              </g>
              <g id="Group_42076" data-name="Group 42076" transform="translate(10.556 35.421)">
                <path id="Path_37185" data-name="Path 37185" d="M428.044,145.775H550.689L572.3,122.309h88.672v-3.093H571.045l-21.532,23.421h-120.3l-73.718-80H242.905L191.675,6.976H55.464L32.594,31.807H9.973v3.138H33.765l22.87-24.831H190.419L241.73,65.779H354.321Z" transform="translate(-9.973 -6.976)" fill="#fff"/>
              </g>
              <g id="Group_42077" data-name="Group 42077" transform="translate(171.82 145.569)">
                <path id="Path_37186" data-name="Path 37186" d="M12.884,225.638H62.939l51.436-55.758h65.26l145.009-157.4h53.113V9.341h-54.37l-144.927,157.4H113.118L61.763,222.5H12.884Z" transform="translate(-12.884 -9.341)" fill="#fff"/>
              </g>
              <g id="Group_42078" data-name="Group 42078" transform="translate(10.556 140.612)">
                <path id="Path_37187" data-name="Path 37187" d="M116.318,55.894h72.963l29.282-31.788H378.734V17.83H216.217L186.853,49.621H118.664L81.468,9.234H16.71v6.23H79.122Z" transform="translate(-16.71 -9.234)" fill="#fff"/>
              </g>
              <g id="Group_42079" data-name="Group 42079" transform="translate(5.696 178.13)">
                <path id="Path_37188" data-name="Path 37188" d="M249,77.534H364.776V74.441h-114.6L214.11,35.327H88.87L65.58,10.04H17.159v3.139H64.323l23.29,25.287H212.939Z" transform="translate(-17.159 -10.04)" fill="#fff"/>
              </g>
              <g id="Group_42080" data-name="Group 42080" transform="translate(6.704 178.13)">
                <path id="Path_37189" data-name="Path 37189" d="M158.091,135.29h51.226L318.893,16.318h70.874l52.525,57.076H614.653l29.282,31.789h41.55V98.9H646.32L617.042,67.116H444.72L392.113,10.04H316.546L206.932,129.012H160.437L136.98,103.548H9.479v6.273H134.552Z" transform="translate(-9.479 -10.04)" fill="#fff"/>
              </g>
              <g id="Group_42081" data-name="Group 42081" transform="translate(10.556 187.774)">
                <path id="Path_37190" data-name="Path 37190" d="M222.435,110.843H411.592L498.465,16.52H599.077V10.247H496.119l-86.873,94.364H224.863L184.274,60.543H11.45V66.82h170.4Z" transform="translate(-11.45 -10.247)" fill="#fff"/>
              </g>
              <g id="Group_42082" data-name="Group 42082" transform="translate(454.177 260.768)">
                <path id="Path_37191" data-name="Path 37191" d="M174.008,61.337h64V58.2H175.184L132.459,11.814H9.479v3.134h121.8Z" transform="translate(-9.479 -11.814)" fill="#fff"/>
              </g>
              <g id="Group_42083" data-name="Group 42083" transform="translate(0 319.66)">
                <path id="Path_37192" data-name="Path 37192" d="M65.1,131.916H285.208L347.62,64.152H459.963l44.149-47.934h44.565V13.079h-45.74L458.787,61.014H346.449l-62.412,67.764H66.271L26.9,86.026H12.905v3.139H25.721Z" transform="translate(-12.905 -13.079)" fill="#fff"/>
              </g>
              <g id="Group_42084" data-name="Group 42084" transform="translate(2.848 355.086)">
                <path id="Path_37193" data-name="Path 37193" d="M94.121,180.658h185.6L298.9,159.827H399.768L531.291,16.979H708.723L735.2,45.721l2.011-2.226L709.9,13.84H530.12L398.6,156.688H297.732l-19.186,20.831H95.377L80.97,161.876H8.337v3.134H79.713Z" transform="translate(-8.337 -13.84)" fill="#fff"/>
              </g>
              <g id="Group_42085" data-name="Group 42085" transform="translate(5.696 257.126)">
                <path id="Path_37194" data-name="Path 37194" d="M427.255,144.125h152.3v-3.139H428.426L372.8,80.5H173.044L109.628,11.736h-97.6v3.092h96.425l63.33,68.812h199.76Z" transform="translate(-12.032 -11.736)" fill="#fff"/>
              </g>
              <g id="Group_42086" data-name="Group 42086" transform="translate(308.242 60.634)">
                <path id="Path_37195" data-name="Path 37195" d="M17.942,13.711c0,3.493,2.531,6.287,5.7,6.287a6.057,6.057,0,0,0,5.79-6.287,6,6,0,0,0-5.79-6.194A5.933,5.933,0,0,0,17.942,13.711Z" transform="translate(-17.942 -7.517)" fill="#fff"/>
              </g>
              <g id="Group_42087" data-name="Group 42087" transform="translate(531.923 76.747)">
                <path id="Path_37196" data-name="Path 37196" d="M12.726,14.1a6.058,6.058,0,0,0,5.79,6.287A6.052,6.052,0,0,0,24.264,14.1a6.039,6.039,0,0,0-5.748-6.24A6.045,6.045,0,0,0,12.726,14.1Z" transform="translate(-12.726 -7.863)" fill="#fff"/>
              </g>
              <g id="Group_42088" data-name="Group 42088" transform="translate(529.993 142.411)">
                <path id="Path_37197" data-name="Path 37197" d="M12.77,15.56a6.016,6.016,0,0,0,5.79,6.24,6.044,6.044,0,0,0,5.79-6.24,6.086,6.086,0,0,0-5.79-6.287A6.058,6.058,0,0,0,12.77,15.56Z" transform="translate(-12.77 -9.273)" fill="#fff"/>
              </g>
              <g id="Group_42089" data-name="Group 42089" transform="translate(675.954 302.471)">
                <path id="Path_37198" data-name="Path 37198" d="M9.368,18.95a6.052,6.052,0,0,0,5.748,6.287,6.086,6.086,0,0,0,5.79-6.287,6.044,6.044,0,0,0-5.79-6.24A6.01,6.01,0,0,0,9.368,18.95Z" transform="translate(-9.368 -12.71)" fill="#fff"/>
              </g>
              <g id="Group_42090" data-name="Group 42090" transform="translate(448.413 256.041)">
                <path id="Path_37199" data-name="Path 37199" d="M14.673,18a6.01,6.01,0,0,0,5.748,6.24A6.016,6.016,0,0,0,26.211,18a6.029,6.029,0,0,0-5.79-6.287A6.023,6.023,0,0,0,14.673,18Z" transform="translate(-14.673 -11.713)" fill="#fff"/>
              </g>
              <g id="Group_42091" data-name="Group 42091" transform="translate(529.092 314.44)">
                <path id="Path_37200" data-name="Path 37200" d="M12.794,19.254a5.967,5.967,0,0,0,5.748,6.194,5.906,5.906,0,0,0,5.7-6.194c0-3.493-2.488-6.287-5.7-6.287A6.023,6.023,0,0,0,12.794,19.254Z" transform="translate(-12.794 -12.967)" fill="#fff"/>
              </g>
              <g id="Group_42092" data-name="Group 42092" transform="translate(518.498 351.928)">
                <path id="Path_37201" data-name="Path 37201" d="M13.04,20.059a6.032,6.032,0,0,0,5.7,6.24,6.044,6.044,0,0,0,5.79-6.24,6.086,6.086,0,0,0-5.79-6.287C15.656,13.772,13.04,16.613,13.04,20.059Z" transform="translate(-13.04 -13.772)" fill="#fff"/>
              </g>
              <g id="Group_42093" data-name="Group 42093" transform="translate(268.61 297.255)">
                <path id="Path_37202" data-name="Path 37202" d="M18.866,18.838a6.014,6.014,0,0,0,5.79,6.24,5.946,5.946,0,0,0,5.7-6.24,5.975,5.975,0,0,0-5.7-6.24A6.044,6.044,0,0,0,18.866,18.838Z" transform="translate(-18.866 -12.598)" fill="#fff"/>
              </g>
              <g id="Group_42094" data-name="Group 42094" transform="translate(196.509 197.177)">
                <path id="Path_37203" data-name="Path 37203" d="M20.544,16.689a6.086,6.086,0,0,0,5.79,6.287,6.093,6.093,0,0,0,5.833-6.287,6.05,6.05,0,0,0-5.833-6.24A6.044,6.044,0,0,0,20.544,16.689Z" transform="translate(-20.544 -10.449)" fill="#fff"/>
              </g>
              <g id="Group_42095" data-name="Group 42095" transform="translate(429.197 122.106)">
                <path id="Path_37204" data-name="Path 37204" d="M15.122,15.077a6.014,6.014,0,0,0,5.79,6.24,5.946,5.946,0,0,0,5.7-6.24,5.975,5.975,0,0,0-5.7-6.24A6.044,6.044,0,0,0,15.122,15.077Z" transform="translate(-15.122 -8.837)" fill="#fff"/>
              </g>
              <g id="Group_42096" data-name="Group 42096" transform="translate(347.102 236.761)">
                <path id="Path_37205" data-name="Path 37205" d="M17.036,17.586a6.044,6.044,0,0,0,5.79,6.24,5.975,5.975,0,0,0,5.7-6.24c0-3.493-2.531-6.287-5.7-6.287A6.057,6.057,0,0,0,17.036,17.586Z" transform="translate(-17.036 -11.299)" fill="#fff"/>
              </g>
              <g id="Group_42097" data-name="Group 42097" transform="translate(327.672 362.639)">
                <path id="Path_37206" data-name="Path 37206" d="M17.489,20.289a6.087,6.087,0,0,0,5.79,6.287c3.088,0,5.7-2.841,5.7-6.287S26.368,14,23.279,14A6.087,6.087,0,0,0,17.489,20.289Z" transform="translate(-17.489 -14.002)" fill="#fff"/>
              </g>
              <g id="Group_42098" data-name="Group 42098" transform="translate(265.951 429.141)">
                <path id="Path_37207" data-name="Path 37207" d="M18.927,21.67a5.987,5.987,0,0,0,5.79,6.24,5.98,5.98,0,0,0,5.748-6.24,6.01,6.01,0,0,0-5.748-6.24A6.016,6.016,0,0,0,18.927,21.67Z" transform="translate(-18.927 -15.43)" fill="#fff"/>
              </g>
              <g id="Group_42099" data-name="Group 42099" transform="translate(726.352 380.103)">
                <path id="Path_37208" data-name="Path 37208" d="M8.192,20.664a6.044,6.044,0,0,0,5.79,6.24,6.044,6.044,0,0,0,5.79-6.24,6.086,6.086,0,0,0-5.79-6.287A6.086,6.086,0,0,0,8.192,20.664Z" transform="translate(-8.192 -14.377)" fill="#fff"/>
              </g>
              <g id="Group_42100" data-name="Group 42100" transform="translate(566.494 381.128)">
                <path id="Path_37209" data-name="Path 37209" d="M11.921,20.686a6.044,6.044,0,0,0,5.79,6.24,5.975,5.975,0,0,0,5.7-6.24c0-3.446-2.531-6.287-5.7-6.287A6.087,6.087,0,0,0,11.921,20.686Z" transform="translate(-11.921 -14.399)" fill="#fff"/>
              </g>
              <g id="Group_42101" data-name="Group 42101" transform="translate(169.916 352.487)">
                <path id="Path_37210" data-name="Path 37210" d="M21.166,20.024a6.023,6.023,0,0,0,5.747,6.287,6.057,6.057,0,0,0,5.79-6.287,6.074,6.074,0,0,0-5.79-6.24A6.039,6.039,0,0,0,21.166,20.024Z" transform="translate(-21.166 -13.784)" fill="#fff"/>
              </g>
              <g id="Group_42102" data-name="Group 42102" transform="translate(47.245 173.193)">
                <path id="Path_37211" data-name="Path 37211" d="M24.025,16.174a6.014,6.014,0,0,0,5.79,6.24,6.014,6.014,0,0,0,5.79-6.24,6.044,6.044,0,0,0-5.79-6.24A6.044,6.044,0,0,0,24.025,16.174Z" transform="translate(-24.025 -9.934)" fill="#fff"/>
              </g>
              <g id="Group_42103" data-name="Group 42103" transform="translate(360.098 321.285)">
                <path id="Path_37212" data-name="Path 37212" d="M16.733,19.354c0,3.446,2.531,6.287,5.7,6.287a6.087,6.087,0,0,0,5.79-6.287,6.044,6.044,0,0,0-5.79-6.24A5.975,5.975,0,0,0,16.733,19.354Z" transform="translate(-16.733 -13.114)" fill="#fff"/>
              </g>
              <g id="Group_42104" data-name="Group 42104" transform="translate(349.719 86.387)">
                <path id="Path_37213" data-name="Path 37213" d="M16.974,14.31a6.058,6.058,0,0,0,5.79,6.287,6.052,6.052,0,0,0,5.747-6.287,6.009,6.009,0,0,0-5.747-6.24A6.016,6.016,0,0,0,16.974,14.31Z" transform="translate(-16.974 -8.07)" fill="#fff"/>
              </g>
              <g id="Group_42105" data-name="Group 42105" transform="translate(222.973 18.349)">
                <path id="Path_37214" data-name="Path 37214" d="M19.929,12.9a6.009,6.009,0,0,0,5.748,6.24,6.016,6.016,0,0,0,5.79-6.24,6.058,6.058,0,0,0-5.79-6.287A6.052,6.052,0,0,0,19.929,12.9Z" transform="translate(-19.929 -6.609)" fill="#fff"/>
              </g>
              <g id="Group_42106" data-name="Group 42106" transform="translate(121.791)">
                <path id="Path_37215" data-name="Path 37215" d="M22.289,12.5a6,6,0,0,0,5.79,6.194,5.989,5.989,0,0,0,5.7-6.194c0-3.493-2.616-6.287-5.7-6.287A6.057,6.057,0,0,0,22.289,12.5Z" transform="translate(-22.289 -6.215)" fill="#fff"/>
              </g>
              <g id="Group_42107" data-name="Group 42107" transform="translate(48.918)">
                <path id="Path_37216" data-name="Path 37216" d="M23.986,12.5a6,6,0,0,0,5.79,6.194,6,6,0,0,0,5.79-6.194,6.057,6.057,0,0,0-5.79-6.287A6.057,6.057,0,0,0,23.986,12.5Z" transform="translate(-23.986 -6.215)" fill="#fff"/>
              </g>
              <g id="Group_42108" data-name="Group 42108" transform="translate(50.334 29.758)">
                <path id="Path_37217" data-name="Path 37217" d="M23.953,13.048a6.057,6.057,0,0,0,5.79,6.287,6.057,6.057,0,0,0,5.79-6.287,6,6,0,0,0-5.79-6.194A6,6,0,0,0,23.953,13.048Z" transform="translate(-23.953 -6.854)" fill="#fff"/>
              </g>
              <g id="Group_42109" data-name="Group 42109" transform="translate(140.75 65.663)">
                <path id="Path_37218" data-name="Path 37218" d="M21.846,13.912a6.016,6.016,0,0,0,5.79,6.24,6.009,6.009,0,0,0,5.747-6.24,6.052,6.052,0,0,0-5.747-6.287A6.058,6.058,0,0,0,21.846,13.912Z" transform="translate(-21.846 -7.625)" fill="#fff"/>
              </g>
              <g id="Group_42110" data-name="Group 42110" transform="translate(249.695 122.106)">
                <path id="Path_37219" data-name="Path 37219" d="M19.308,15.077c0,3.493,2.488,6.24,5.7,6.24a5.98,5.98,0,0,0,5.747-6.24,6.009,6.009,0,0,0-5.747-6.24A5.948,5.948,0,0,0,19.308,15.077Z" transform="translate(-19.308 -8.837)" fill="#fff"/>
              </g>
              <g id="Group_42111" data-name="Group 42111" transform="translate(654.336 142.969)">
                <path id="Path_37220" data-name="Path 37220" d="M9.872,15.525a6.086,6.086,0,0,0,5.79,6.287,6.052,6.052,0,0,0,5.748-6.287,6.01,6.01,0,0,0-5.748-6.24A6.044,6.044,0,0,0,9.872,15.525Z" transform="translate(-9.872 -9.285)" fill="#fff"/>
              </g>
              <g id="Group_42112" data-name="Group 42112" transform="translate(589.57 182.041)">
                <path id="Path_37221" data-name="Path 37221" d="M11.27,19.019c0,4.89,3.646,8.848,8.149,8.848s8.192-3.958,8.192-8.848c0-4.936-3.689-8.895-8.192-8.895S11.27,14.082,11.27,19.019Z" transform="translate(-11.27 -10.124)" fill="#fff"/>
              </g>
              <g id="Group_42113" data-name="Group 42113" transform="translate(363.787 143.761)">
                <path id="Path_37222" data-name="Path 37222" d="M16.534,18.1c0,4.936,3.689,8.895,8.107,8.895,4.546,0,8.235-3.958,8.235-8.895,0-4.843-3.689-8.8-8.235-8.8C20.223,9.3,16.534,13.26,16.534,18.1Z" transform="translate(-16.534 -9.302)" fill="#fff"/>
              </g>
              <g id="Group_42114" data-name="Group 42114" transform="translate(202.471 144.134)">
                <path id="Path_37223" data-name="Path 37223" d="M20.3,18.158c0,4.89,3.646,8.848,8.192,8.848,4.5,0,8.107-3.958,8.107-8.848,0-4.843-3.6-8.848-8.107-8.848C23.942,9.31,20.3,13.315,20.3,18.158Z" transform="translate(-20.296 -9.31)" fill="#fff"/>
              </g>
              <g id="Group_42115" data-name="Group 42115" transform="translate(675.525 261.816)">
                <path id="Path_37224" data-name="Path 37224" d="M9.268,20.685c0,4.89,3.6,8.848,8.107,8.848s8.149-3.958,8.149-8.848-3.646-8.848-8.149-8.848S9.268,15.8,9.268,20.685Z" transform="translate(-9.268 -11.837)" fill="#fff"/>
              </g>
            </g>
          </g>
        </g>
      </g>
    </g>
  </g>
</svg>
