<svg xmlns="http://www.w3.org/2000/svg" xmlns:xlink="http://www.w3.org/1999/xlink" width="337.507" height="477.582" viewBox="0 0 337.507 477.582">
  <defs>
    <filter id="Path_37780" x="0" y="82.524" width="337.507" height="395.057" filterUnits="userSpaceOnUse">
      <feOffset input="SourceAlpha"/>
      <feGaussianBlur stdDeviation="5" result="blur"/>
      <feFlood flood-color="#ffc476"/>
      <feComposite operator="in" in2="blur"/>
      <feComposite in="SourceGraphic"/>
    </filter>
  </defs>
  <g id="Group_42283" data-name="Group 42283" transform="translate(15)">
    <path id="Path_37778" data-name="Path 37778" d="M264.714,163.5,259.2,109.839l-97.423,7.386L156.908,170.8Z" transform="translate(-56.994 -65.975)" fill="#464545"/>
    <path id="Path_37779" data-name="Path 37779" d="M155.534,133.251a4.62,4.62,0,0,1,4.3-4.923l108.3-7.33a4.617,4.617,0,0,1,4.923,4.291h0a4.626,4.626,0,0,1-4.3,4.923l-108.291,7.327a4.609,4.609,0,0,1-4.923-4.288Z" transform="translate(-60.668 -36.409)" fill="#292928"/>
    <g transform="matrix(1, 0, 0, 1, -15, 0)" filter="url(#Path_37780)">
      <path id="Path_37780-2" data-name="Path 37780" d="M283.3,489.588a153.745,153.745,0,0,0,71.659-289.775c-8.488-15.358-18.364-40.8-17.692-75.282l-107.806,7.3c-.055,0-.1-.007-.153-.007-.73,30.778-9.8,53.729-17.67,67.984A153.748,153.748,0,0,0,283.3,489.588Z" transform="translate(-114.55 -27.01)" fill="#ffc476"/>
    </g>
    <path id="Path_37781" data-name="Path 37781" d="M155.534,130.1a4.613,4.613,0,0,1,4.3-4.916l108.3-7.337a4.617,4.617,0,0,1,4.923,4.291h0a4.622,4.622,0,0,1-4.3,4.92L160.457,134.4a4.623,4.623,0,0,1-4.923-4.3Z" transform="translate(-60.668 -44.753)" fill="#292928"/>
    <path id="Path_37782" data-name="Path 37782" d="M155.534,126.815a4.619,4.619,0,0,1,4.3-4.92l108.3-7.33a4.612,4.612,0,0,1,4.923,4.291h0a4.621,4.621,0,0,1-4.3,4.916L160.457,131.11a4.62,4.62,0,0,1-4.923-4.3Z" transform="translate(-60.668 -53.469)" fill="#292928"/>
    <path id="Path_37783" data-name="Path 37783" d="M155.534,123.531a4.624,4.624,0,0,1,4.3-4.923l108.3-7.33a4.618,4.618,0,0,1,4.923,4.3h0a4.621,4.621,0,0,1-4.3,4.916l-108.291,7.338a4.62,4.62,0,0,1-4.923-4.3Z" transform="translate(-60.668 -62.19)" fill="#292928"/>
    <path id="Path_37784" data-name="Path 37784" d="M158.241,149.078l97.422-7.385-17.542-27.7h-5.8a23.089,23.089,0,0,0-44.051,0h-6.483Z" transform="translate(-53.459 -97.829)" fill="#292928"/>
    <path id="Path_37785" data-name="Path 37785" d="M283.3,489.588a153.975,153.975,0,0,0,32.871-3.557,109.285,109.285,0,0,1-22.25-3.305c-33.707-8.7-61.293-33.072-76.115-64.427C188.3,355.906,201.981,265,264.06,226.814c31.373-19.3,70.3-23.777,107.546-16.8a153.215,153.215,0,0,0-16.644-10.2c-8.488-15.358-18.364-40.8-17.692-75.282l-107.806,7.3c-.055,0-.1-.007-.153-.007-.73,30.778-9.8,53.729-17.67,67.984A153.748,153.748,0,0,0,283.3,489.588Z" transform="translate(-129.552 -27.007)" fill="#ffb95d"/>
    <path id="Path_37786" data-name="Path 37786" d="M254.132,125.327l15.577,143.08c1.3,11.18,3.36,45.716,20.281,45.91,15.895.179,16.819-22.155,1.823-26.6-5.858-1.735-14.847,3.8-18.744,2.4-7.257-2.615-16.8,5.172-19.054,12.758-2.973,10.022,6.538,15.658,9.164,3.923,4.708-21.07-31.392-18.2-26.8-.479.84,3.254,4.445,7.845,7.633,5.741,4.744-3.148,3.163-12.951-.066-16.322-4.211-4.4-11.958-4.73-17.086-1.808s-10.548,12.9-3.769,17.2c7.487,4.748,12.184-16.687-1.943-18.276-6.326-.712-23.583,4.624-16.969,14.12,6.662,9.558,9.81-4.3,5.694-9.624-3.685-4.774-12.67-6.318-18.192-4.317-5.427,1.969-9.35,8.744-7.027,14.361a6.27,6.27,0,0,0,10.614,1.833c3.974-4.755-.42-12.509-4.562-15.676a19.262,19.262,0,0,0-9.138-3.861c-7.706-.785-14.832-1.961-21.98,2.294-17.739,10.57-5.552,31.111,9.766,17.626,19.569-17.239,16.98-55.983,20.482-79.624l9.043-102.7" transform="translate(-73.167 -24.895)" fill="none" stroke="#fff" stroke-miterlimit="10" stroke-width="0.882"/>
    <path id="Path_37787" data-name="Path 37787" d="M217.781,125.367c-.493,34.043,9.281,59.211,17.7,74.445a153.728,153.728,0,0,1-65.515,289.622c2.045.08,4.087.153,6.151.153a153.745,153.745,0,0,0,71.659-289.775c-8.488-15.358-18.364-40.8-17.692-75.282Z" transform="translate(-22.364 -27.007)" fill="#ffac3f"/>
  </g>
</svg>
