<svg xmlns="http://www.w3.org/2000/svg" xmlns:xlink="http://www.w3.org/1999/xlink" width="1074" height="1165" viewBox="0 0 1074 1165">
  <defs>
    <clipPath id="clip-path">
      <rect id="SVGID" width="1074" height="1165" transform="translate(0 -0.468)" fill="#fff"/>
    </clipPath>
  </defs>
  <g id="Group_42218" data-name="Group 42218" transform="translate(0 0.468)" opacity="0.2" style="mix-blend-mode: color-dodge;isolation: isolate">
    <g id="Group_42120" data-name="Group 42120">
      <g id="Group_42119" data-name="Group 42119">
        <g id="Group_42118" data-name="Group 42118" clip-path="url(#clip-path)">
          <g id="Group_42117" data-name="Group 42117" transform="translate(149.006 146.276)" style="mix-blend-mode: color-dodge;isolation: isolate">
            <g id="Group_42030" data-name="Group 42030" opacity="0.07">
              <g id="Group_41988" data-name="Group 41988" transform="translate(656.515 7.487)">
                <path id="Path_37100" data-name="Path 37100" d="M90.993,101.762H18.78V96.942H89.234L148.67,30.725H280.948L306.331,3.3H421.183L488.7,76.658l-3.1,3.366L419.257,8.168H308.172l-25.3,27.424H150.514Z" transform="translate(-18.78 -3.302)" fill="#fff"/>
              </g>
              <g id="Group_41989" data-name="Group 41989" transform="translate(309.988 108.403)">
                <path id="Path_37101" data-name="Path 37101" d="M822.631,102.656H701.659l-85.2-92.321h-86.62l-81.01,87.91H168.9L103.481,27.208H10.7V22.387h94.619l65.47,70.992h276.2L528,5.469h90.309l85.2,92.367H822.631Z" transform="translate(-10.701 -5.469)" fill="#fff"/>
              </g>
              <g id="Group_41990" data-name="Group 41990" transform="translate(118.23 54.829)">
                <path id="Path_37102" data-name="Path 37102" d="M366.956,219.295H177l-33.425-36.337H6.23v-4.821H145.461l33.384,36.292H365.073L479.256,90.545H653.628L732.961,4.318H943.9L979.34,42.793h35.017v4.866H977.41L942.058,9.184H734.805L655.473,95.411H481.057Z" transform="translate(-6.23 -4.318)" fill="#fff"/>
              </g>
              <g id="Group_41991" data-name="Group 41991" transform="translate(311.536 225.419)">
                <path id="Path_37103" data-name="Path 37103" d="M575.747,342.928H498.34l-79.629-86.364H317.6L93.085,12.848H10.737V7.981H94.93L319.357,251.744h101.2L500.1,338.061h75.648Z" transform="translate(-10.737 -7.981)" fill="#fff"/>
              </g>
              <g id="Group_41992" data-name="Group 41992" transform="translate(565.786 217.733)">
                <path id="Path_37104" data-name="Path 37104" d="M422.923,80.127H310l-45.32-49.253H16.665V21.141H268.281l45.4,49.253H419.321L476.873,7.816H577.235v9.641H480.562Z" transform="translate(-16.665 -7.816)" fill="#fff"/>
              </g>
              <g id="Group_41993" data-name="Group 41993" transform="translate(595.527 275.854)">
                <path id="Path_37105" data-name="Path 37105" d="M196.676,113.574H17.358V108.8H194.913l55.712-60.579H444.642L480.749,9.064h74.893v4.821H482.593l-36.025,39.2h-194.1Z" transform="translate(-17.358 -9.064)" fill="#fff"/>
              </g>
              <g id="Group_41994" data-name="Group 41994" transform="translate(85.516 275.854)">
                <path id="Path_37106" data-name="Path 37106" d="M822.129,203.03H742.8L573.112,18.751H463.374l-81.387,88.41h-266.9L69.764,156.367H5.468v-9.687h60.61l45.363-49.206H378.3l81.383-88.41H576.8l169.68,184.279h71.964l36.274-39.477h197.534v9.686H858.489Z" transform="translate(-5.468 -9.064)" fill="#fff"/>
              </g>
              <g id="Group_41995" data-name="Group 41995" transform="translate(216.328 290.771)">
                <path id="Path_37107" data-name="Path 37107" d="M591.83,165.195h-293L164.293,19.117H8.518V9.385H167.982L302.559,155.55h285.5l62.828-68.262H918.546v9.733H654.576Z" transform="translate(-8.518 -9.385)" fill="#fff"/>
              </g>
              <g id="Group_41996" data-name="Group 41996" transform="translate(85.516 403.784)">
                <path id="Path_37108" data-name="Path 37108" d="M104.488,88.582H5.468V83.715h97.219l66.139-71.9h190.5v4.867H170.669Z" transform="translate(-5.468 -11.812)" fill="#fff"/>
              </g>
              <g id="Group_41997" data-name="Group 41997" transform="translate(312.96 495.061)">
                <path id="Path_37109" data-name="Path 37109" d="M759.662,197.732H418.83L322.157,92.856h-174L79.8,18.638H10.77V13.772H81.645L150,87.99H324l96.592,104.875H757.817l60.988-66.125H840.5v4.82H820.645Z" transform="translate(-10.77 -13.772)" fill="#fff"/>
              </g>
              <g id="Group_41998" data-name="Group 41998" transform="translate(9.576 549.906)">
                <path id="Path_37110" data-name="Path 37110" d="M999.51,273.267H712.126l-29.741-32.291H526.232L322.578,19.816H47.845L6.839,64.341,3.7,60.881,45.961,14.949h278.38l203.775,221.16H684.229l29.7,32.291H997.579l22.368-24.24h112.424v4.867H1021.792Z" transform="translate(-3.697 -14.949)" fill="#fff"/>
              </g>
              <g id="Group_41999" data-name="Group 41999" transform="translate(254.99 398.191)">
                <path id="Path_37111" data-name="Path 37111" d="M245.24,216.71H9.419v-4.867h234.02l86.2-93.643H638.932l98.184-106.51H888.24v4.82H738.955l-98.1,106.556H331.526Z" transform="translate(-9.419 -11.691)" fill="#fff"/>
              </g>
              <g id="Group_42000" data-name="Group 42000" transform="translate(647.538 93.885)">
                <path id="Path_37112" data-name="Path 37112" d="M36.414,14.8c0,5.356-3.9,9.733-8.879,9.733-4.933,0-8.964-4.378-8.964-9.733s4.032-9.64,8.964-9.64C32.511,5.157,36.414,9.441,36.414,14.8Z" transform="translate(-18.571 -5.157)" fill="#fff"/>
              </g>
              <g id="Group_42001" data-name="Group 42001" transform="translate(301.101 118.846)">
                <path id="Path_37113" data-name="Path 37113" d="M28.337,15.333c0,5.4-4.032,9.733-8.964,9.733-4.89,0-8.879-4.331-8.879-9.733,0-5.262,3.989-9.64,8.879-9.64C24.305,5.693,28.337,10.071,28.337,15.333Z" transform="translate(-10.494 -5.693)" fill="#fff"/>
              </g>
              <g id="Group_42002" data-name="Group 42002" transform="translate(303.974 220.555)">
                <path id="Path_37114" data-name="Path 37114" d="M28.533,17.61c0,5.309-4.032,9.64-9.007,9.64-4.933,0-8.964-4.331-8.964-9.64,0-5.356,4.032-9.733,8.964-9.733C24.5,7.877,28.533,12.255,28.533,17.61Z" transform="translate(-10.561 -7.877)" fill="#fff"/>
              </g>
              <g id="Group_42003" data-name="Group 42003" transform="translate(78.063 468.399)">
                <path id="Path_37115" data-name="Path 37115" d="M23.137,22.886c0,5.356-3.989,9.687-8.879,9.687-4.933,0-8.964-4.331-8.964-9.687S9.326,13.2,14.258,13.2C19.148,13.2,23.137,17.53,23.137,22.886Z" transform="translate(-5.294 -13.199)" fill="#fff"/>
              </g>
              <g id="Group_42004" data-name="Group 42004" transform="translate(430.432 396.486)">
                <ellipse id="Ellipse_403" data-name="Ellipse 403" cx="8.943" cy="9.71" rx="8.943" ry="9.71" fill="#fff"/>
              </g>
              <g id="Group_42005" data-name="Group 42005" transform="translate(305.604 486.934)">
                <path id="Path_37116" data-name="Path 37116" d="M28.356,23.33c0,5.356-3.946,9.64-8.879,9.64-4.975,0-8.879-4.284-8.879-9.64,0-5.4,3.9-9.733,8.879-9.733C24.41,13.6,28.356,17.928,28.356,23.33Z" transform="translate(-10.599 -13.597)" fill="#fff"/>
              </g>
              <g id="Group_42006" data-name="Group 42006" transform="translate(321.946 545.053)">
                <path id="Path_37117" data-name="Path 37117" d="M28.78,24.578c0,5.309-3.989,9.64-8.836,9.64-4.975,0-8.964-4.331-8.964-9.64,0-5.356,3.989-9.733,8.964-9.733C24.791,14.845,28.78,19.223,28.78,24.578Z" transform="translate(-10.98 -14.845)" fill="#fff"/>
              </g>
              <g id="Group_42007" data-name="Group 42007" transform="translate(708.916 460.296)">
                <path id="Path_37118" data-name="Path 37118" d="M37.8,22.712c0,5.4-4.032,9.687-8.921,9.687S20,28.114,20,22.712c0-5.309,3.989-9.687,8.879-9.687S37.8,17.4,37.8,22.712Z" transform="translate(-20.002 -13.025)" fill="#fff"/>
              </g>
              <g id="Group_42008" data-name="Group 42008" transform="translate(820.435 305.358)">
                <path id="Path_37119" data-name="Path 37119" d="M40.445,19.338c0,5.356-4.032,9.687-8.921,9.687-4.933,0-8.922-4.331-8.922-9.687S26.591,9.7,31.524,9.7C36.413,9.7,40.445,13.982,40.445,19.338Z" transform="translate(-22.602 -9.698)" fill="#fff"/>
              </g>
              <g id="Group_42009" data-name="Group 42009" transform="translate(460.229 189.074)">
                <path id="Path_37120" data-name="Path 37120" d="M31.961,16.841c0,5.4-3.946,9.733-8.879,9.733S14.2,22.243,14.2,16.841c0-5.262,3.946-9.64,8.879-9.64S31.961,11.579,31.961,16.841Z" transform="translate(-14.204 -7.201)" fill="#fff"/>
              </g>
              <g id="Group_42010" data-name="Group 42010" transform="translate(587.361 366.691)">
                <path id="Path_37121" data-name="Path 37121" d="M34.925,20.7c0,5.356-3.946,9.733-8.836,9.733-4.933,0-8.922-4.378-8.922-9.733s3.989-9.686,8.922-9.686C30.979,11.015,34.925,15.346,34.925,20.7Z" transform="translate(-17.168 -11.015)" fill="#fff"/>
              </g>
              <g id="Group_42011" data-name="Group 42011" transform="translate(617.471 561.586)">
                <path id="Path_37122" data-name="Path 37122" d="M35.627,24.887c0,5.356-3.946,9.733-8.879,9.733-4.847,0-8.879-4.378-8.879-9.733,0-5.309,4.032-9.687,8.879-9.687C31.681,15.2,35.627,19.578,35.627,24.887Z" transform="translate(-17.87 -15.2)" fill="#fff"/>
              </g>
              <g id="Group_42012" data-name="Group 42012" transform="translate(712.948 664.505)">
                <path id="Path_37123" data-name="Path 37123" d="M37.982,27.05c0,5.4-4.032,9.733-8.921,9.733-4.933,0-8.964-4.331-8.964-9.733,0-5.262,4.032-9.64,8.964-9.64C33.95,17.41,37.982,21.788,37.982,27.05Z" transform="translate(-20.096 -17.41)" fill="#fff"/>
              </g>
              <g id="Group_42013" data-name="Group 42013" transform="translate(0 588.643)">
                <path id="Path_37124" data-name="Path 37124" d="M21.317,25.468c0,5.356-3.989,9.687-8.879,9.687-4.975,0-8.964-4.331-8.964-9.687,0-5.309,3.989-9.687,8.964-9.687C17.328,15.781,21.317,20.159,21.317,25.468Z" transform="translate(-3.474 -15.781)" fill="#fff"/>
              </g>
              <g id="Group_42014" data-name="Group 42014" transform="translate(247.572 590.226)">
                <path id="Path_37125" data-name="Path 37125" d="M27.046,25.5c0,5.4-3.989,9.687-8.879,9.687-4.933,0-8.922-4.284-8.922-9.687,0-5.309,3.989-9.687,8.922-9.687C23.057,15.815,27.046,20.193,27.046,25.5Z" transform="translate(-9.246 -15.815)" fill="#fff"/>
              </g>
              <g id="Group_42015" data-name="Group 42015" transform="translate(861.74 545.892)">
                <path id="Path_37126" data-name="Path 37126" d="M41.365,24.456c0,5.449-3.989,9.687-8.922,9.687-4.975,0-8.879-4.238-8.879-9.687,0-5.216,3.9-9.593,8.879-9.593C37.376,14.863,41.365,19.241,41.365,24.456Z" transform="translate(-23.565 -14.863)" fill="#fff"/>
              </g>
              <g id="Group_42016" data-name="Group 42016" transform="translate(1051.622 268.196)">
                <path id="Path_37127" data-name="Path 37127" d="M45.835,18.587c0,5.4-3.989,9.593-8.964,9.593-4.932,0-8.878-4.191-8.878-9.593,0-5.309,3.946-9.687,8.878-9.687C41.846,8.9,45.835,13.278,45.835,18.587Z" transform="translate(-27.992 -8.9)" fill="#fff"/>
              </g>
              <g id="Group_42017" data-name="Group 42017" transform="translate(567.244 497.552)">
                <path id="Path_37128" data-name="Path 37128" d="M34.542,23.465c0,5.356-3.989,9.733-8.879,9.733-4.933,0-8.964-4.378-8.964-9.733,0-5.309,4.032-9.64,8.964-9.64C30.553,13.825,34.542,18.156,34.542,23.465Z" transform="translate(-16.699 -13.825)" fill="#fff"/>
              </g>
              <g id="Group_42018" data-name="Group 42018" transform="translate(583.2 133.795)">
                <path id="Path_37129" data-name="Path 37129" d="M34.957,15.654c0,5.356-3.989,9.733-8.922,9.733s-8.964-4.378-8.964-9.733,4.032-9.64,8.964-9.64S34.957,10.3,34.957,15.654Z" transform="translate(-17.071 -6.014)" fill="#fff"/>
              </g>
              <g id="Group_42019" data-name="Group 42019" transform="translate(779.516 28.454)">
                <path id="Path_37130" data-name="Path 37130" d="M39.577,13.485c0,5.309-3.989,9.64-8.964,9.64-4.933,0-8.964-4.331-8.964-9.64,0-5.356,4.032-9.733,8.964-9.733C35.588,3.752,39.577,8.13,39.577,13.485Z" transform="translate(-21.648 -3.752)" fill="#fff"/>
              </g>
              <g id="Group_42020" data-name="Group 42020" transform="translate(936.286)">
                <path id="Path_37131" data-name="Path 37131" d="M43.146,12.874c0,5.309-4.032,9.64-8.964,9.64-4.847,0-8.879-4.331-8.879-9.64,0-5.4,4.032-9.733,8.879-9.733C39.114,3.141,43.146,7.472,43.146,12.874Z" transform="translate(-25.303 -3.141)" fill="#fff"/>
              </g>
              <g id="Group_42021" data-name="Group 42021" transform="translate(1049.048)">
                <path id="Path_37132" data-name="Path 37132" d="M45.775,12.874c0,5.309-4.032,9.64-8.964,9.64-4.975,0-8.879-4.331-8.879-9.64,0-5.4,3.9-9.733,8.879-9.733C41.743,3.141,45.775,7.472,45.775,12.874Z" transform="translate(-27.932 -3.141)" fill="#fff"/>
              </g>
              <g id="Group_42022" data-name="Group 42022" transform="translate(1046.775 46.058)">
                <path id="Path_37133" data-name="Path 37133" d="M45.808,13.77c0,5.356-4.032,9.733-8.964,9.733s-8.964-4.378-8.964-9.733,4.032-9.64,8.964-9.64S45.808,8.414,45.808,13.77Z" transform="translate(-27.879 -4.13)" fill="#fff"/>
              </g>
              <g id="Group_42023" data-name="Group 42023" transform="translate(906.862 101.662)">
                <path id="Path_37134" data-name="Path 37134" d="M42.46,15.057c0,5.356-3.989,9.64-8.964,9.64-4.933,0-8.879-4.284-8.879-9.64S28.563,5.324,33.5,5.324C38.471,5.324,42.46,9.7,42.46,15.057Z" transform="translate(-24.617 -5.324)" fill="#fff"/>
              </g>
              <g id="Group_42024" data-name="Group 42024" transform="translate(738.211 189.074)">
                <path id="Path_37135" data-name="Path 37135" d="M38.571,16.841c0,5.4-3.946,9.733-8.879,9.733-4.975,0-9.007-4.331-9.007-9.733,0-5.262,4.032-9.64,9.007-9.64C34.625,7.2,38.571,11.579,38.571,16.841Z" transform="translate(-20.685 -7.201)" fill="#fff"/>
              </g>
              <g id="Group_42025" data-name="Group 42025" transform="translate(111.519 221.44)">
                <path id="Path_37136" data-name="Path 37136" d="M23.96,17.536c0,5.356-4.032,9.733-8.964,9.733s-8.922-4.378-8.922-9.733S10.063,7.9,15,7.9,23.96,12.18,23.96,17.536Z" transform="translate(-6.074 -7.896)" fill="#fff"/>
              </g>
              <g id="Group_42026" data-name="Group 42026" transform="translate(204.465 281.887)">
                <path id="Path_37137" data-name="Path 37137" d="M33.461,22.932c0,7.637-5.619,13.785-12.61,13.785S8.241,30.57,8.241,22.932c0-7.544,5.619-13.738,12.61-13.738S33.461,15.388,33.461,22.932Z" transform="translate(-8.241 -9.194)" fill="#fff"/>
              </g>
              <g id="Group_42027" data-name="Group 42027" transform="translate(554.034 222.65)">
                <path id="Path_37138" data-name="Path 37138" d="M41.654,21.567c0,7.544-5.619,13.738-12.61,13.738-6.949,0-12.653-6.194-12.653-13.738S22.1,7.922,29.044,7.922C36.035,7.922,41.654,14.023,41.654,21.567Z" transform="translate(-16.391 -7.922)" fill="#fff"/>
              </g>
              <g id="Group_42028" data-name="Group 42028" transform="translate(803.921 223.209)">
                <path id="Path_37139" data-name="Path 37139" d="M47.437,21.672c0,7.591-5.619,13.645-12.653,13.645-6.948,0-12.567-6.054-12.567-13.645,0-7.637,5.619-13.738,12.567-13.738C41.819,7.934,47.437,14.035,47.437,21.672Z" transform="translate(-22.217 -7.934)" fill="#fff"/>
              </g>
              <g id="Group_42029" data-name="Group 42029" transform="translate(71.415 405.483)">
                <path id="Path_37140" data-name="Path 37140" d="M30.4,25.54c0,7.591-5.7,13.645-12.653,13.645S5.139,33.13,5.139,25.54,10.8,11.848,17.749,11.848,30.4,17.949,30.4,25.54Z" transform="translate(-5.139 -11.848)" fill="#fff"/>
              </g>
            </g>
            <g id="Group_42073" data-name="Group 42073" transform="translate(148.749 105.201)" opacity="0.2">
              <g id="Group_42031" data-name="Group 42031" transform="translate(485.565 5.566)">
                <path id="Path_37141" data-name="Path 37141" d="M71.71,78.331H18.263V74.783H70.368L114.31,25.8h97.931L230.92,5.52h84.947l49.926,54.256-2.26,2.5L314.525,9.112H232.344L213.579,29.4H115.692Z" transform="translate(-18.263 -5.52)" fill="#fff"/>
              </g>
              <g id="Group_42032" data-name="Group 42032" transform="translate(229.304 80.196)">
                <path id="Path_37142" data-name="Path 37142" d="M612.731,79.024H523.263l-63-68.309h-64L336.323,75.749h-207L80.9,23.221H12.288V19.629H82.279l48.382,52.527H334.98L394.836,7.122h66.851l63,68.309h88.044Z" transform="translate(-12.288 -7.122)" fill="#fff"/>
              </g>
              <g id="Group_42033" data-name="Group 42033" transform="translate(87.476 40.585)">
                <path id="Path_37143" data-name="Path 37143" d="M275.8,165.264H135.27l-24.714-26.878H8.981v-3.547H111.937l24.714,26.832H274.372l84.445-91.639H487.746L546.513,6.271H702.5l26.22,28.47H754.6v3.593H727.293l-26.22-28.47H547.851L489.128,73.625H360.156Z" transform="translate(-8.981 -6.271)" fill="#fff"/>
              </g>
              <g id="Group_42034" data-name="Group 42034" transform="translate(230.475 166.742)">
                <path id="Path_37144" data-name="Path 37144" d="M430.133,256.7H372.92l-58.938-63.852H239.217L73.179,12.573H12.315V8.98H74.56l166,180.278h74.85l58.852,63.852h55.875Z" transform="translate(-12.315 -8.98)" fill="#fff"/>
              </g>
              <g id="Group_42035" data-name="Group 42035" transform="translate(418.461 161.057)">
                <path id="Path_37145" data-name="Path 37145" d="M317.151,62.339H233.632L200.121,25.913H16.7V18.727H202.8l33.593,36.428H314.47l42.643-46.3h74.22V16H359.876Z" transform="translate(-16.698 -8.858)" fill="#fff"/>
              </g>
              <g id="Group_42036" data-name="Group 42036" transform="translate(440.495 204.034)">
                <path id="Path_37146" data-name="Path 37146" d="M149.825,87.094H17.212V83.546H148.486l41.258-44.8h143.5l26.64-28.969h55.455v3.593H361.312L334.586,42.345h-143.5Z" transform="translate(-17.212 -9.781)" fill="#fff"/>
              </g>
              <g id="Group_42037" data-name="Group 42037" transform="translate(63.265 204.034)">
                <path id="Path_37147" data-name="Path 37147" d="M612.463,153.265H553.74L428.247,16.967H347.113l-60.233,65.4H89.509L56,118.748H8.417v-7.186H53.236l33.55-36.385H284.2l60.147-65.4h86.624L556.5,146.08H609.7l26.893-29.195H782.606v7.186H639.356Z" transform="translate(-8.417 -9.781)" fill="#fff"/>
              </g>
              <g id="Group_42038" data-name="Group 42038" transform="translate(160.025 215.087)">
                <path id="Path_37148" data-name="Path 37148" d="M442.062,125.26H225.381L125.9,17.2H10.673V10.019H128.625l99.522,108.1H439.3L485.79,67.639H683.744v7.186H488.556Z" transform="translate(-10.673 -10.019)" fill="#fff"/>
              </g>
              <g id="Group_42039" data-name="Group 42039" transform="translate(63.265 298.676)">
                <path id="Path_37149" data-name="Path 37149" d="M81.677,68.568H8.417V64.978H80.338l48.922-53.164H270.126V15.4H130.6Z" transform="translate(-8.417 -11.813)" fill="#fff"/>
              </g>
              <g id="Group_42040" data-name="Group 42040" transform="translate(231.483 366.165)">
                <path id="Path_37150" data-name="Path 37150" d="M566.205,149.335H314.13l-71.5-77.585H113.954L63.44,16.853h-51.1V13.263h52.44L115.3,68.155H243.972l71.5,77.585h249.39L609.934,96.8h16.084v3.6H611.272Z" transform="translate(-12.339 -13.263)" fill="#fff"/>
              </g>
              <g id="Group_42041" data-name="Group 42041" transform="translate(7.137 406.732)">
                <path id="Path_37151" data-name="Path 37151" d="M743.6,205.187H531.023L509.076,181.31H393.555L242.928,17.724H39.738L9.412,50.654l-2.3-2.547L38.356,14.134H244.27L394.936,177.72H510.418L532.366,201.6h209.81l16.5-17.92h83.184v3.6H760.1Z" transform="translate(-7.108 -14.134)" fill="#fff"/>
              </g>
              <g id="Group_42042" data-name="Group 42042" transform="translate(188.63 294.536)">
                <path id="Path_37152" data-name="Path 37152" d="M185.759,163.351H11.34v-3.6H184.417l63.75-69.263H476.952L549.5,11.725H661.335v3.549H550.842L478.376,94.088H249.552Z" transform="translate(-11.34 -11.725)" fill="#fff"/>
              </g>
              <g id="Group_42043" data-name="Group 42043" transform="translate(478.93 69.482)">
                <path id="Path_37153" data-name="Path 37153" d="M31.319,14.017c0,3.958-2.874,7.172-6.562,7.172a6.972,6.972,0,0,1-6.648-7.172,6.929,6.929,0,0,1,6.648-7.125C28.445,6.892,31.319,10.059,31.319,14.017Z" transform="translate(-18.108 -6.892)" fill="#fff"/>
              </g>
              <g id="Group_42044" data-name="Group 42044" transform="translate(222.737 87.924)">
                <path id="Path_37154" data-name="Path 37154" d="M25.3,14.413c0,3.958-2.96,7.218-6.605,7.218s-6.562-3.26-6.562-7.218A6.862,6.862,0,0,1,18.7,7.288,6.9,6.9,0,0,1,25.3,14.413Z" transform="translate(-12.135 -7.288)" fill="#fff"/>
              </g>
              <g id="Group_42045" data-name="Group 42045" transform="translate(224.882 163.134)">
                <path id="Path_37155" data-name="Path 37155" d="M25.4,16.121a6.839,6.839,0,0,1-6.605,7.125,6.9,6.9,0,0,1-6.605-7.125c0-3.958,3-7.218,6.605-7.218C22.479,8.9,25.4,12.163,25.4,16.121Z" transform="translate(-12.185 -8.903)" fill="#fff"/>
              </g>
              <g id="Group_42046" data-name="Group 42046" transform="translate(57.775 346.48)">
                <path id="Path_37156" data-name="Path 37156" d="M21.5,19.965a6.915,6.915,0,0,1-6.648,7.172c-3.6,0-6.563-3.213-6.563-7.172a6.86,6.86,0,0,1,6.563-7.125A6.873,6.873,0,0,1,21.5,19.965Z" transform="translate(-8.289 -12.84)" fill="#fff"/>
              </g>
              <g id="Group_42047" data-name="Group 42047" transform="translate(318.386 293.25)">
                <path id="Path_37157" data-name="Path 37157" d="M27.576,18.915c0,3.912-3,7.172-6.605,7.172-3.689,0-6.605-3.26-6.605-7.172,0-3.958,2.917-7.218,6.605-7.218C24.573,11.7,27.576,14.957,27.576,18.915Z" transform="translate(-14.365 -11.697)" fill="#fff"/>
              </g>
              <g id="Group_42048" data-name="Group 42048" transform="translate(226.04 360.171)">
                <path id="Path_37158" data-name="Path 37158" d="M25.38,20.306a6.867,6.867,0,0,1-6.605,7.125,6.833,6.833,0,0,1-6.562-7.125c0-3.958,2.917-7.172,6.562-7.172A6.909,6.909,0,0,1,25.38,20.306Z" transform="translate(-12.212 -13.134)" fill="#fff"/>
              </g>
              <g id="Group_42049" data-name="Group 42049" transform="translate(238.093 403.155)">
                <path id="Path_37159" data-name="Path 37159" d="M25.747,21.229a6.923,6.923,0,0,1-6.605,7.125,6.929,6.929,0,0,1-6.648-7.125,6.972,6.972,0,0,1,6.648-7.172C22.7,14.057,25.747,17.27,25.747,21.229Z" transform="translate(-12.493 -14.057)" fill="#fff"/>
              </g>
              <g id="Group_42050" data-name="Group 42050" transform="translate(524.353 340.472)">
                <path id="Path_37160" data-name="Path 37160" d="M32.335,19.883a6.915,6.915,0,0,1-6.648,7.172c-3.6,0-6.52-3.213-6.52-7.172s2.917-7.172,6.52-7.172A6.915,6.915,0,0,1,32.335,19.883Z" transform="translate(-19.167 -12.711)" fill="#fff"/>
              </g>
              <g id="Group_42051" data-name="Group 42051" transform="translate(606.834 225.864)">
                <path id="Path_37161" data-name="Path 37161" d="M34.3,17.375c0,3.958-3,7.218-6.605,7.218-3.689,0-6.605-3.26-6.605-7.218A6.839,6.839,0,0,1,27.7,10.25,6.9,6.9,0,0,1,34.3,17.375Z" transform="translate(-21.09 -10.25)" fill="#fff"/>
              </g>
              <g id="Group_42052" data-name="Group 42052" transform="translate(340.39 139.849)">
                <path id="Path_37162" data-name="Path 37162" d="M28.046,15.575c0,4-2.96,7.172-6.562,7.172-3.689,0-6.605-3.167-6.605-7.172,0-3.912,2.917-7.172,6.605-7.172C25.086,8.4,28.046,11.663,28.046,15.575Z" transform="translate(-14.878 -8.403)" fill="#fff"/>
              </g>
              <g id="Group_42053" data-name="Group 42053" transform="translate(434.451 271.223)">
                <path id="Path_37163" data-name="Path 37163" d="M30.2,18.4c0,3.958-2.874,7.172-6.562,7.172-3.6,0-6.563-3.213-6.563-7.172s2.96-7.172,6.563-7.172C27.322,11.224,30.2,14.437,30.2,18.4Z" transform="translate(-17.071 -11.224)" fill="#fff"/>
              </g>
              <g id="Group_42054" data-name="Group 42054" transform="translate(456.712 415.356)">
                <path id="Path_37164" data-name="Path 37164" d="M30.715,21.537c0,3.958-2.917,7.172-6.562,7.172-3.6,0-6.562-3.213-6.562-7.172s2.96-7.218,6.562-7.218C27.8,14.319,30.715,17.579,30.715,21.537Z" transform="translate(-17.59 -14.319)" fill="#fff"/>
              </g>
              <g id="Group_42055" data-name="Group 42055" transform="translate(527.269 491.498)">
                <path id="Path_37165" data-name="Path 37165" d="M32.531,23.079c0,4.005-2.96,7.218-6.605,7.218a6.99,6.99,0,0,1-6.691-7.218,6.966,6.966,0,0,1,6.691-7.125A6.9,6.9,0,0,1,32.531,23.079Z" transform="translate(-19.235 -15.954)" fill="#fff"/>
              </g>
              <g id="Group_42056" data-name="Group 42056" transform="translate(0 435.381)">
                <path id="Path_37166" data-name="Path 37166" d="M20.2,21.921a6.909,6.909,0,0,1-6.605,7.172,6.943,6.943,0,0,1-6.648-7.172,6.943,6.943,0,0,1,6.648-7.172A6.909,6.909,0,0,1,20.2,21.921Z" transform="translate(-6.942 -14.749)" fill="#fff"/>
              </g>
              <g id="Group_42057" data-name="Group 42057" transform="translate(183.148 436.546)">
                <path id="Path_37167" data-name="Path 37167" d="M24.38,21.992a6.867,6.867,0,0,1-6.605,7.125,6.833,6.833,0,0,1-6.562-7.125c0-3.958,2.917-7.218,6.562-7.218S24.38,18.034,24.38,21.992Z" transform="translate(-11.212 -14.774)" fill="#fff"/>
              </g>
              <g id="Group_42058" data-name="Group 42058" transform="translate(637.33 403.76)">
                <path id="Path_37168" data-name="Path 37168" d="M35.012,21.2a6.878,6.878,0,0,1-6.605,7.172c-3.689,0-6.605-3.12-6.605-7.172a6.9,6.9,0,0,1,6.605-7.125C32.009,14.07,35.012,17.33,35.012,21.2Z" transform="translate(-21.801 -14.07)" fill="#fff"/>
              </g>
              <g id="Group_42059" data-name="Group 42059" transform="translate(777.8 198.387)">
                <path id="Path_37169" data-name="Path 37169" d="M38.33,16.832a6.9,6.9,0,0,1-6.648,7.125,6.867,6.867,0,0,1-6.605-7.125A6.909,6.909,0,0,1,31.681,9.66,6.943,6.943,0,0,1,38.33,16.832Z" transform="translate(-25.076 -9.66)" fill="#fff"/>
              </g>
              <g id="Group_42060" data-name="Group 42060" transform="translate(419.568 368.041)">
                <path id="Path_37170" data-name="Path 37170" d="M29.935,20.428A6.881,6.881,0,0,1,23.329,27.6c-3.6,0-6.605-3.213-6.605-7.172A6.9,6.9,0,0,1,23.329,13.3,6.839,6.839,0,0,1,29.935,20.428Z" transform="translate(-16.724 -13.303)" fill="#fff"/>
              </g>
              <g id="Group_42061" data-name="Group 42061" transform="translate(431.363 98.961)">
                <path id="Path_37171" data-name="Path 37171" d="M30.253,14.7A6.943,6.943,0,0,1,23.6,21.869,6.909,6.909,0,0,1,17,14.7,6.909,6.909,0,0,1,23.6,7.525,6.943,6.943,0,0,1,30.253,14.7Z" transform="translate(-16.999 -7.525)" fill="#fff"/>
              </g>
              <g id="Group_42062" data-name="Group 42062" transform="translate(576.552 21.096)">
                <path id="Path_37172" data-name="Path 37172" d="M33.638,13.025a6.9,6.9,0,0,1-6.648,7.125,6.867,6.867,0,0,1-6.605-7.125,6.909,6.909,0,0,1,6.605-7.172A6.943,6.943,0,0,1,33.638,13.025Z" transform="translate(-20.384 -5.853)" fill="#fff"/>
              </g>
              <g id="Group_42063" data-name="Group 42063" transform="translate(692.446)">
                <path id="Path_37173" data-name="Path 37173" d="M36.34,12.618a6.929,6.929,0,0,1-6.648,7.125,6.9,6.9,0,0,1-6.605-7.125c0-3.958,3-7.218,6.605-7.218S36.34,8.66,36.34,12.618Z" transform="translate(-23.086 -5.4)" fill="#fff"/>
              </g>
              <g id="Group_42064" data-name="Group 42064" transform="translate(775.87)">
                <path id="Path_37174" data-name="Path 37174" d="M38.285,12.618a6.9,6.9,0,0,1-6.648,7.125,6.867,6.867,0,0,1-6.605-7.125c0-3.958,2.96-7.218,6.605-7.218S38.285,8.66,38.285,12.618Z" transform="translate(-25.031 -5.4)" fill="#fff"/>
              </g>
              <g id="Group_42065" data-name="Group 42065" transform="translate(774.198 34.089)">
                <path id="Path_37175" data-name="Path 37175" d="M38.246,13.257a6.909,6.909,0,0,1-6.605,7.172,6.972,6.972,0,0,1-6.648-7.172A6.929,6.929,0,0,1,31.64,6.132,6.867,6.867,0,0,1,38.246,13.257Z" transform="translate(-24.992 -6.132)" fill="#fff"/>
              </g>
              <g id="Group_42066" data-name="Group 42066" transform="translate(670.742 75.257)">
                <path id="Path_37176" data-name="Path 37176" d="M35.748,14.188A6.873,6.873,0,0,1,29.1,21.313c-3.6,0-6.52-3.167-6.52-7.125S25.5,7.016,29.1,7.016A6.915,6.915,0,0,1,35.748,14.188Z" transform="translate(-22.58 -7.016)" fill="#fff"/>
              </g>
              <g id="Group_42067" data-name="Group 42067" transform="translate(546.056 139.849)">
                <path id="Path_37177" data-name="Path 37177" d="M32.8,15.575c0,4-2.917,7.172-6.52,7.172-3.689,0-6.605-3.167-6.605-7.172,0-3.912,2.917-7.172,6.605-7.172C29.881,8.4,32.8,11.663,32.8,15.575Z" transform="translate(-19.673 -8.403)" fill="#fff"/>
              </g>
              <g id="Group_42068" data-name="Group 42068" transform="translate(82.524 163.786)">
                <path id="Path_37178" data-name="Path 37178" d="M22.077,16.042c0,3.958-3,7.218-6.605,7.218-3.646,0-6.605-3.26-6.605-7.218a6.867,6.867,0,0,1,6.605-7.125A6.9,6.9,0,0,1,22.077,16.042Z" transform="translate(-8.866 -8.917)" fill="#fff"/>
              </g>
              <g id="Group_42069" data-name="Group 42069" transform="translate(151.237 208.54)">
                <path id="Path_37179" data-name="Path 37179" d="M29.126,20.03c0,5.635-4.118,10.2-9.308,10.2s-9.35-4.564-9.35-10.2c0-5.588,4.16-10.152,9.35-10.152S29.126,14.442,29.126,20.03Z" transform="translate(-10.468 -9.878)" fill="#fff"/>
              </g>
              <g id="Group_42070" data-name="Group 42070" transform="translate(409.746 164.718)">
                <path id="Path_37180" data-name="Path 37180" d="M35.282,19c0,5.588-4.2,10.152-9.35,10.152S16.495,24.584,16.495,19,20.784,8.937,25.931,8.937,35.282,13.408,35.282,19Z" transform="translate(-16.495 -8.937)" fill="#fff"/>
              </g>
              <g id="Group_42071" data-name="Group 42071" transform="translate(594.609 165.09)">
                <path id="Path_37181" data-name="Path 37181" d="M39.463,19.1c0,5.635-4.16,10.152-9.35,10.152-5.147,0-9.307-4.517-9.307-10.152,0-5.588,4.16-10.152,9.307-10.152C35.3,8.945,39.463,13.509,39.463,19.1Z" transform="translate(-20.805 -8.945)" fill="#fff"/>
              </g>
              <g id="Group_42072" data-name="Group 42072" transform="translate(52.843 299.91)">
                <path id="Path_37182" data-name="Path 37182" d="M26.832,21.992c0,5.588-4.16,10.059-9.308,10.059-5.19,0-9.35-4.471-9.35-10.059,0-5.682,4.161-10.152,9.35-10.152C22.671,11.84,26.832,16.311,26.832,21.992Z" transform="translate(-8.174 -11.84)" fill="#fff"/>
              </g>
            </g>
            <g id="Group_42116" data-name="Group 42116" transform="translate(202.364 143.156)">
              <g id="Group_42074" data-name="Group 42074" transform="translate(423.99 4.813)">
                <path id="Path_37183" data-name="Path 37183" d="M64.739,69.9H18.077V66.8H63.568l38.367-42.75h85.492L203.764,6.318H277.9l43.642,47.389-2.007,2.183L276.728,9.456H204.935L188.6,27.193H103.11Z" transform="translate(-18.077 -6.318)" fill="#fff"/>
              </g>
              <g id="Group_42075" data-name="Group 42075" transform="translate(200.236 69.984)">
                <path id="Path_37184" data-name="Path 37184" d="M537.153,70.524H458.991L404.038,10.856H348.077l-52.315,56.8H114.977L72.755,21.771H12.86V18.633H73.93l42.3,45.888H294.587L346.9,7.718h58.307l55.039,59.668h76.9Z" transform="translate(-12.86 -7.718)" fill="#fff"/>
              </g>
              <g id="Group_42076" data-name="Group 42076" transform="translate(76.376 35.421)">
                <path id="Path_37185" data-name="Path 37185" d="M242.9,145.775H120.258L98.645,122.309H9.973v-3.093H99.9l21.532,23.421h120.3l73.718-80H428.041l51.23-55.665H615.483l22.87,24.831h22.621v3.138H637.182l-22.87-24.831H480.528L429.216,65.779H316.625Z" transform="translate(-9.973 -6.976)" fill="#fff"/>
              </g>
              <g id="Group_42077" data-name="Group 42077" transform="translate(201.24 145.569)">
                <path id="Path_37186" data-name="Path 37186" d="M377.756,225.638H327.7L276.265,169.88h-65.26L66,12.479H12.884V9.341h54.37l144.927,157.4h65.341L328.876,222.5h48.88Z" transform="translate(-12.884 -9.341)" fill="#fff"/>
              </g>
              <g id="Group_42078" data-name="Group 42078" transform="translate(365.353 140.612)">
                <path id="Path_37187" data-name="Path 37187" d="M279.126,55.894H206.163L176.881,24.106H16.71V17.83H179.227l29.364,31.791H276.78l37.2-40.386h64.758v6.23H316.322Z" transform="translate(-16.71 -9.234)" fill="#fff"/>
              </g>
              <g id="Group_42079" data-name="Group 42079" transform="translate(384.62 178.13)">
                <path id="Path_37188" data-name="Path 37188" d="M132.933,77.534H17.159V74.441h114.6l36.063-39.114h125.24l23.29-25.287h48.421v3.139H317.612l-23.29,25.287H169Z" transform="translate(-17.159 -10.04)" fill="#fff"/>
              </g>
              <g id="Group_42080" data-name="Group 42080" transform="translate(55.223 178.13)">
                <path id="Path_37189" data-name="Path 37189" d="M536.874,135.29H485.648L376.072,16.318H305.2L252.672,73.394H80.312L51.029,105.182H9.479V98.9H48.644L77.922,67.116H250.245L302.851,10.04h75.567L488.033,129.012h46.495l23.458-25.464h127.5v6.273H560.413Z" transform="translate(-9.479 -10.04)" fill="#fff"/>
              </g>
              <g id="Group_42081" data-name="Group 42081" transform="translate(139.75 187.774)">
                <path id="Path_37190" data-name="Path 37190" d="M388.092,110.843H198.935L112.062,16.52H11.45V10.247H114.408l86.873,94.364H385.664l40.588-44.069H599.077V66.82H428.68Z" transform="translate(-11.45 -10.247)" fill="#fff"/>
              </g>
              <g id="Group_42082" data-name="Group 42082" transform="translate(55.223 260.768)">
                <path id="Path_37191" data-name="Path 37191" d="M73.483,61.337h-64V58.2H72.308l42.725-46.384H238.012v3.134h-121.8Z" transform="translate(-9.479 -11.814)" fill="#fff"/>
              </g>
              <g id="Group_42083" data-name="Group 42083" transform="translate(202.162 319.66)">
                <path id="Path_37192" data-name="Path 37192" d="M496.485,131.916H276.373L213.961,64.152H101.618L57.47,16.218H12.905V13.079h45.74l44.149,47.934H215.132l62.412,67.764H495.31l39.375-42.751h13.991v3.139H535.86Z" transform="translate(-12.905 -13.079)" fill="#fff"/>
              </g>
              <g id="Group_42084" data-name="Group 42084" transform="translate(6.215 355.086)">
                <path id="Path_37193" data-name="Path 37193" d="M651.422,180.658h-185.6l-19.181-20.831H345.775L214.252,16.979H36.82L10.348,45.721,8.337,43.5,35.647,13.84H215.422L346.946,156.688H447.81L467,177.519h183.17l14.407-15.643h72.633v3.134H665.83Z" transform="translate(-8.337 -13.84)" fill="#fff"/>
              </g>
              <g id="Group_42085" data-name="Group 42085" transform="translate(164.713 257.126)">
                <path id="Path_37194" data-name="Path 37194" d="M164.333,144.125H12.032v-3.139H163.162L218.784,80.5h199.76l63.416-68.765h97.6v3.092H483.13L419.8,83.64H220.04Z" transform="translate(-12.032 -11.736)" fill="#fff"/>
              </g>
              <g id="Group_42086" data-name="Group 42086" transform="translate(418.195 60.634)">
                <path id="Path_37195" data-name="Path 37195" d="M29.437,13.711c0,3.493-2.531,6.287-5.7,6.287a6.057,6.057,0,0,1-5.79-6.287,6,6,0,0,1,5.79-6.194A5.933,5.933,0,0,1,29.437,13.711Z" transform="translate(-17.942 -7.517)" fill="#fff"/>
              </g>
              <g id="Group_42087" data-name="Group 42087" transform="translate(194.472 76.747)">
                <path id="Path_37196" data-name="Path 37196" d="M24.264,14.1a6.058,6.058,0,0,1-5.79,6.287A6.052,6.052,0,0,1,12.726,14.1a6.039,6.039,0,0,1,5.748-6.24A6.045,6.045,0,0,1,24.264,14.1Z" transform="translate(-12.726 -7.863)" fill="#fff"/>
              </g>
              <g id="Group_42088" data-name="Group 42088" transform="translate(196.359 142.411)">
                <path id="Path_37197" data-name="Path 37197" d="M24.351,15.56a6.016,6.016,0,0,1-5.79,6.24,6.044,6.044,0,0,1-5.79-6.24,6.086,6.086,0,0,1,5.79-6.287A6.058,6.058,0,0,1,24.351,15.56Z" transform="translate(-12.77 -9.273)" fill="#fff"/>
              </g>
              <g id="Group_42089" data-name="Group 42089" transform="translate(50.441 302.471)">
                <path id="Path_37198" data-name="Path 37198" d="M20.906,18.95a6.052,6.052,0,0,1-5.748,6.287,6.086,6.086,0,0,1-5.79-6.287,6.044,6.044,0,0,1,5.79-6.24A6.01,6.01,0,0,1,20.906,18.95Z" transform="translate(-9.368 -12.71)" fill="#fff"/>
              </g>
              <g id="Group_42090" data-name="Group 42090" transform="translate(277.982 256.041)">
                <path id="Path_37199" data-name="Path 37199" d="M26.211,18a6.01,6.01,0,0,1-5.748,6.24A6.016,6.016,0,0,1,14.673,18a6.029,6.029,0,0,1,5.79-6.287A6.023,6.023,0,0,1,26.211,18Z" transform="translate(-14.673 -11.713)" fill="#fff"/>
              </g>
              <g id="Group_42091" data-name="Group 42091" transform="translate(197.388 314.44)">
                <path id="Path_37200" data-name="Path 37200" d="M24.246,19.254A5.967,5.967,0,0,1,18.5,25.448a5.906,5.906,0,0,1-5.7-6.194c0-3.493,2.488-6.287,5.7-6.287A6.023,6.023,0,0,1,24.246,19.254Z" transform="translate(-12.794 -12.967)" fill="#fff"/>
              </g>
              <g id="Group_42092" data-name="Group 42092" transform="translate(207.94 351.928)">
                <path id="Path_37201" data-name="Path 37201" d="M24.535,20.059a6.032,6.032,0,0,1-5.7,6.24,6.044,6.044,0,0,1-5.79-6.24,6.086,6.086,0,0,1,5.79-6.287C21.919,13.772,24.535,16.613,24.535,20.059Z" transform="translate(-13.04 -13.772)" fill="#fff"/>
              </g>
              <g id="Group_42093" data-name="Group 42093" transform="translate(457.827 297.255)">
                <path id="Path_37202" data-name="Path 37202" d="M30.361,18.838a6.014,6.014,0,0,1-5.79,6.24,5.946,5.946,0,0,1-5.7-6.24,5.975,5.975,0,0,1,5.7-6.24A6.044,6.044,0,0,1,30.361,18.838Z" transform="translate(-18.866 -12.598)" fill="#fff"/>
              </g>
              <g id="Group_42094" data-name="Group 42094" transform="translate(529.8 197.177)">
                <path id="Path_37203" data-name="Path 37203" d="M32.168,16.689a6.086,6.086,0,0,1-5.79,6.287,6.093,6.093,0,0,1-5.833-6.287,6.05,6.05,0,0,1,5.833-6.24A6.044,6.044,0,0,1,32.168,16.689Z" transform="translate(-20.544 -10.449)" fill="#fff"/>
              </g>
              <g id="Group_42095" data-name="Group 42095" transform="translate(297.24 122.106)">
                <path id="Path_37204" data-name="Path 37204" d="M26.617,15.077a6.014,6.014,0,0,1-5.79,6.24,5.946,5.946,0,0,1-5.7-6.24,5.975,5.975,0,0,1,5.7-6.24A6.044,6.044,0,0,1,26.617,15.077Z" transform="translate(-15.122 -8.837)" fill="#fff"/>
              </g>
              <g id="Group_42096" data-name="Group 42096" transform="translate(379.335 236.761)">
                <path id="Path_37205" data-name="Path 37205" d="M28.531,17.586a6.044,6.044,0,0,1-5.79,6.24,5.975,5.975,0,0,1-5.7-6.24c0-3.493,2.531-6.287,5.7-6.287A6.057,6.057,0,0,1,28.531,17.586Z" transform="translate(-17.036 -11.299)" fill="#fff"/>
              </g>
              <g id="Group_42097" data-name="Group 42097" transform="translate(398.765 362.639)">
                <path id="Path_37206" data-name="Path 37206" d="M28.984,20.289a6.087,6.087,0,0,1-5.79,6.287c-3.088,0-5.7-2.841-5.7-6.287S20.105,14,23.194,14A6.087,6.087,0,0,1,28.984,20.289Z" transform="translate(-17.489 -14.002)" fill="#fff"/>
              </g>
              <g id="Group_42098" data-name="Group 42098" transform="translate(460.444 429.141)">
                <path id="Path_37207" data-name="Path 37207" d="M30.465,21.67a5.987,5.987,0,0,1-5.79,6.24,5.98,5.98,0,0,1-5.748-6.24,6.01,6.01,0,0,1,5.748-6.24A6.016,6.016,0,0,1,30.465,21.67Z" transform="translate(-18.927 -15.43)" fill="#fff"/>
              </g>
              <g id="Group_42099" data-name="Group 42099" transform="translate(0 380.103)">
                <path id="Path_37208" data-name="Path 37208" d="M19.773,20.664a6.044,6.044,0,0,1-5.79,6.24,6.044,6.044,0,0,1-5.79-6.24,6.086,6.086,0,0,1,5.79-6.287A6.086,6.086,0,0,1,19.773,20.664Z" transform="translate(-8.192 -14.377)" fill="#fff"/>
              </g>
              <g id="Group_42100" data-name="Group 42100" transform="translate(159.944 381.128)">
                <path id="Path_37209" data-name="Path 37209" d="M23.416,20.686a6.044,6.044,0,0,1-5.79,6.24,5.975,5.975,0,0,1-5.7-6.24c0-3.446,2.531-6.287,5.7-6.287A6.087,6.087,0,0,1,23.416,20.686Z" transform="translate(-11.921 -14.399)" fill="#fff"/>
              </g>
              <g id="Group_42101" data-name="Group 42101" transform="translate(556.479 352.487)">
                <path id="Path_37210" data-name="Path 37210" d="M32.7,20.024a6.023,6.023,0,0,1-5.747,6.287,6.057,6.057,0,0,1-5.79-6.287,6.074,6.074,0,0,1,5.79-6.24A6.039,6.039,0,0,1,32.7,20.024Z" transform="translate(-21.166 -13.784)" fill="#fff"/>
              </g>
              <g id="Group_42102" data-name="Group 42102" transform="translate(679.106 173.193)">
                <path id="Path_37211" data-name="Path 37211" d="M35.606,16.174a6.014,6.014,0,0,1-5.79,6.24,6.014,6.014,0,0,1-5.79-6.24,6.044,6.044,0,0,1,5.79-6.24A6.044,6.044,0,0,1,35.606,16.174Z" transform="translate(-24.025 -9.934)" fill="#fff"/>
              </g>
              <g id="Group_42103" data-name="Group 42103" transform="translate(366.339 321.285)">
                <path id="Path_37212" data-name="Path 37212" d="M28.228,19.354c0,3.446-2.531,6.287-5.7,6.287a6.087,6.087,0,0,1-5.79-6.287,6.044,6.044,0,0,1,5.79-6.24A5.975,5.975,0,0,1,28.228,19.354Z" transform="translate(-16.733 -13.114)" fill="#fff"/>
              </g>
              <g id="Group_42104" data-name="Group 42104" transform="translate(376.676 86.387)">
                <path id="Path_37213" data-name="Path 37213" d="M28.512,14.31a6.058,6.058,0,0,1-5.79,6.287,6.052,6.052,0,0,1-5.747-6.287,6.009,6.009,0,0,1,5.747-6.24A6.016,6.016,0,0,1,28.512,14.31Z" transform="translate(-16.974 -8.07)" fill="#fff"/>
              </g>
              <g id="Group_42105" data-name="Group 42105" transform="translate(503.421 18.349)">
                <path id="Path_37214" data-name="Path 37214" d="M31.467,12.9a6.009,6.009,0,0,1-5.748,6.24,6.016,6.016,0,0,1-5.79-6.24,6.058,6.058,0,0,1,5.79-6.287A6.052,6.052,0,0,1,31.467,12.9Z" transform="translate(-19.929 -6.609)" fill="#fff"/>
              </g>
              <g id="Group_42106" data-name="Group 42106" transform="translate(604.646)">
                <path id="Path_37215" data-name="Path 37215" d="M33.784,12.5a6,6,0,0,1-5.79,6.194,5.989,5.989,0,0,1-5.7-6.194c0-3.493,2.616-6.287,5.7-6.287A6.057,6.057,0,0,1,33.784,12.5Z" transform="translate(-22.289 -6.215)" fill="#fff"/>
              </g>
              <g id="Group_42107" data-name="Group 42107" transform="translate(677.434)">
                <path id="Path_37216" data-name="Path 37216" d="M35.567,12.5a6,6,0,0,1-5.79,6.194,6,6,0,0,1-5.79-6.194,6.057,6.057,0,0,1,5.79-6.287A6.057,6.057,0,0,1,35.567,12.5Z" transform="translate(-23.986 -6.215)" fill="#fff"/>
              </g>
              <g id="Group_42108" data-name="Group 42108" transform="translate(676.018 29.758)">
                <path id="Path_37217" data-name="Path 37217" d="M35.534,13.048a6.057,6.057,0,0,1-5.79,6.287,6.057,6.057,0,0,1-5.79-6.287,6,6,0,0,1,5.79-6.194A6,6,0,0,1,35.534,13.048Z" transform="translate(-23.953 -6.854)" fill="#fff"/>
              </g>
              <g id="Group_42109" data-name="Group 42109" transform="translate(585.645 65.663)">
                <path id="Path_37218" data-name="Path 37218" d="M33.384,13.912a6.016,6.016,0,0,1-5.79,6.24,6.009,6.009,0,0,1-5.747-6.24,6.052,6.052,0,0,1,5.747-6.287A6.058,6.058,0,0,1,33.384,13.912Z" transform="translate(-21.846 -7.625)" fill="#fff"/>
              </g>
              <g id="Group_42110" data-name="Group 42110" transform="translate(476.786 122.106)">
                <path id="Path_37219" data-name="Path 37219" d="M30.76,15.077c0,3.493-2.488,6.24-5.7,6.24a5.98,5.98,0,0,1-5.747-6.24,6.009,6.009,0,0,1,5.747-6.24A5.948,5.948,0,0,1,30.76,15.077Z" transform="translate(-19.308 -8.837)" fill="#fff"/>
              </g>
              <g id="Group_42111" data-name="Group 42111" transform="translate(72.058 142.969)">
                <path id="Path_37220" data-name="Path 37220" d="M21.41,15.525a6.086,6.086,0,0,1-5.79,6.287,6.052,6.052,0,0,1-5.748-6.287,6.01,6.01,0,0,1,5.748-6.24A6.044,6.044,0,0,1,21.41,15.525Z" transform="translate(-9.872 -9.285)" fill="#fff"/>
              </g>
              <g id="Group_42112" data-name="Group 42112" transform="translate(132.021 182.041)">
                <path id="Path_37221" data-name="Path 37221" d="M27.612,19.019c0,4.89-3.646,8.848-8.149,8.848s-8.192-3.958-8.192-8.848c0-4.936,3.689-8.895,8.192-8.895S27.612,14.082,27.612,19.019Z" transform="translate(-11.27 -10.124)" fill="#fff"/>
              </g>
              <g id="Group_42113" data-name="Group 42113" transform="translate(357.804 143.761)">
                <path id="Path_37222" data-name="Path 37222" d="M32.876,18.1c0,4.936-3.689,8.895-8.107,8.895-4.546,0-8.235-3.958-8.235-8.895,0-4.843,3.689-8.8,8.235-8.8C29.187,9.3,32.876,13.26,32.876,18.1Z" transform="translate(-16.534 -9.302)" fill="#fff"/>
              </g>
              <g id="Group_42114" data-name="Group 42114" transform="translate(519.163 144.134)">
                <path id="Path_37223" data-name="Path 37223" d="M36.595,18.158c0,4.89-3.646,8.848-8.192,8.848-4.5,0-8.107-3.958-8.107-8.848,0-4.843,3.6-8.848,8.107-8.848C32.949,9.31,36.595,13.315,36.595,18.158Z" transform="translate(-20.296 -9.31)" fill="#fff"/>
              </g>
              <g id="Group_42115" data-name="Group 42115" transform="translate(46.152 261.816)">
                <path id="Path_37224" data-name="Path 37224" d="M25.524,20.685c0,4.89-3.6,8.848-8.107,8.848s-8.149-3.958-8.149-8.848,3.646-8.848,8.149-8.848S25.524,15.8,25.524,20.685Z" transform="translate(-9.268 -11.837)" fill="#fff"/>
              </g>
            </g>
          </g>
        </g>
      </g>
    </g>
  </g>
</svg>
