<svg xmlns="http://www.w3.org/2000/svg" xmlns:xlink="http://www.w3.org/1999/xlink" width="317.84" height="112.216" viewBox="0 0 317.84 112.216">
  <defs>
    <linearGradient id="linear-gradient" x1="0.069" y1="0.038" x2="1.153" y2="1.322" gradientUnits="objectBoundingBox">
      <stop offset="0" stop-color="#fceb32"/>
      <stop offset="0.649" stop-color="#fcc801"/>
    </linearGradient>
    <linearGradient id="linear-gradient-2" x1="-83.537" y1="0.036" x2="-82.543" y2="1.319" xlink:href="#linear-gradient"/>
    <linearGradient id="linear-gradient-3" x1="0.504" y1="-0.068" x2="0.489" y2="1.012" gradientUnits="objectBoundingBox">
      <stop offset="0.084" stop-color="#fbbf0a"/>
      <stop offset="0.688" stop-color="#f0892e"/>
      <stop offset="1" stop-color="#ec6f33"/>
    </linearGradient>
    <linearGradient id="linear-gradient-4" x1="0.076" y1="0.036" x2="1.07" y2="1.319" xlink:href="#linear-gradient"/>
    <linearGradient id="linear-gradient-5" x1="0.309" y1="0.161" x2="1.199" y2="1.214" xlink:href="#linear-gradient"/>
    <linearGradient id="linear-gradient-6" x1="0.504" y1="-0.068" x2="0.489" y2="1.012" xlink:href="#linear-gradient-3"/>
    <filter id="Path_36888" x="126.367" y="0.089" width="101.16" height="112.127" filterUnits="userSpaceOnUse">
      <feOffset dy="3" input="SourceAlpha"/>
      <feGaussianBlur stdDeviation="3" result="blur"/>
      <feFlood/>
      <feComposite operator="in" in2="blur"/>
      <feComposite in="SourceGraphic"/>
    </filter>
    <filter id="Path_36889" x="214.345" y="0" width="103.495" height="112.216" filterUnits="userSpaceOnUse">
      <feOffset dy="3" input="SourceAlpha"/>
      <feGaussianBlur stdDeviation="3" result="blur-2"/>
      <feFlood/>
      <feComposite operator="in" in2="blur-2"/>
      <feComposite in="SourceGraphic"/>
    </filter>
  </defs>
  <g id="Group_41868" data-name="Group 41868" transform="translate(-754.99 -508.2)">
    <g id="Group_41866" data-name="Group 41866" transform="translate(805.128 514.289)">
      <path id="Path_36860" data-name="Path 36860" d="M480.078,316.969c-.621,2.631-1.212,5.262-1.833,7.893-1.774,1.626-3.548,3.222-5.292,4.819-.414.384-.8.739-1.242,1.123a1.972,1.972,0,0,1-1.6.384,1.606,1.606,0,0,1-1.3-1.271c-.384-1.685-.769-3.341-1.182-5.026-.621-2.631-1.212-5.262-1.833-7.923-2.69-11.736-5.44-23.473-8.13-35.239l15.254,24.034Z" transform="translate(-457.67 -281.73)" fill="url(#linear-gradient)"/>
      <path id="Path_36861" data-name="Path 36861" d="M501.144,281.73l-24.153,38.017a1.707,1.707,0,0,0,0,1.892l10.14,9.164a2.059,2.059,0,0,0,1.6.414A1.614,1.614,0,0,0,490,329.976Q495.586,305.809,501.144,281.73Z" transform="translate(-420.438 -281.73)" fill="url(#linear-gradient-2)"/>
      <g id="Group_41852" data-name="Group 41852" transform="translate(15.233 44.04)">
        <path id="Path_36862" data-name="Path 36862" d="M487.884,312.156l10.2-15.077a1.215,1.215,0,0,1,.769-.443,1.417,1.417,0,0,1,.976.325c.739.532,5.912,5,12.919,11.116a1.737,1.737,0,0,1,.266,1.271c-1.981,9.342-3.932,18.684-5.913,28.025a1.289,1.289,0,0,0-.03.148,5.446,5.446,0,0,1-.325.828,3.83,3.83,0,0,1-.857.946c-1.153.887-16.644,9.371-17.5,9.7a.1.1,0,0,0-.059.03,1.124,1.124,0,0,1-.443.089,1.145,1.145,0,0,1-.532-.148L470,339.383c-.059-.059-.177-.118-.266-.207a.6.6,0,0,1-.148-.148,5.2,5.2,0,0,1-.709-1.035L462.9,310.2a2.672,2.672,0,0,1,0-1.3,2.8,2.8,0,0,1,1.005-1.389l11.736-10.229a1.517,1.517,0,0,1,2.306.059Z" transform="translate(-462.823 -296.627)" fill="url(#linear-gradient-3)"/>
      </g>
    </g>
    <g id="Group_41867" data-name="Group 41867" transform="translate(754.99 514.259)">
      <path id="Path_36863" data-name="Path 36863" d="M440.71,281.73l24.153,38.017a1.718,1.718,0,0,1,.266,1.153,1.934,1.934,0,0,1-.325.739c-3.37,3.045-6.74,6.12-10.081,9.164a2.059,2.059,0,0,1-1.6.414,1.614,1.614,0,0,1-1.271-1.242Q446.268,305.809,440.71,281.73Z" transform="translate(-440.71 -281.7)" fill="url(#linear-gradient-4)"/>
      <path id="Path_36864" data-name="Path 36864" d="M482.828,281.72c-2.69,11.766-5.44,23.5-8.13,35.239-.621,2.631-1.212,5.262-1.833,7.893-.384,1.685-.769,3.37-1.182,5.085a1.645,1.645,0,0,1-1.3,1.271,1.843,1.843,0,0,1-1.567-.384l-1.271-1.123-5.292-4.789c-.621-2.631-1.212-5.262-1.833-7.923l7.125-11.234Z" transform="translate(-402.152 -281.72)" fill="url(#linear-gradient-5)"/>
      <g id="Group_41854" data-name="Group 41854" transform="translate(15.203 44.069)">
        <path id="Path_36865" data-name="Path 36865" d="M470.914,312.156l10.2-15.077a1.215,1.215,0,0,1,.769-.443,1.417,1.417,0,0,1,.976.325c.739.532,5.913,5,12.919,11.116a1.738,1.738,0,0,1,.266,1.271c-1.981,9.342-3.932,18.684-5.913,28.025a1.287,1.287,0,0,0-.03.148,5.435,5.435,0,0,1-.325.828,3.828,3.828,0,0,1-.857.946c-1.153.887-16.644,9.371-17.5,9.7a.1.1,0,0,0-.059.03,1.124,1.124,0,0,1-.443.089,1.144,1.144,0,0,1-.532-.148l-17.353-9.578c-.059-.059-.177-.118-.266-.207a.6.6,0,0,1-.148-.148,5.2,5.2,0,0,1-.709-1.035L445.934,310.2a2.671,2.671,0,0,1,0-1.3,2.8,2.8,0,0,1,1.005-1.389l11.736-10.229a1.517,1.517,0,0,1,2.306.059Z" transform="translate(-445.853 -296.627)" fill="url(#linear-gradient-6)"/>
      </g>
    </g>
    <g transform="matrix(1, 0, 0, 1, 754.99, 508.2)" filter="url(#Path_36888)">
      <path id="Path_36888-2" data-name="Path 36888" d="M560.614,281.73l1.182,22.763-1.6.059a29.525,29.525,0,0,0-2.956-9.578,20.937,20.937,0,0,0-13.658-10.11,56.316,56.316,0,0,0-11.736-1.005H516.063v41.388H520.2a39.912,39.912,0,0,0,9.46-.828,10.58,10.58,0,0,0,5.173-2.956,12.269,12.269,0,0,0,2.868-4.73,39.075,39.075,0,0,0,1.537-8.041l1.6.059-.266,36.983h-1.6a37.817,37.817,0,0,0-1.833-8.544,16.463,16.463,0,0,0-3.341-5.528,12.319,12.319,0,0,0-5.38-3.252,29.068,29.068,0,0,0-8.425-1.035h-3.932v15.786c0,6.3.148,10.879.473,13.747a23.1,23.1,0,0,0,1.863,7.213,14.764,14.764,0,0,0,7.154,7.272c3.193,1.537,7.42,2.306,12.653,2.306a39.909,39.909,0,0,0,13.865-2.1,20.655,20.655,0,0,0,9.105-6.5,24.578,24.578,0,0,0,4.02-6.77,64.358,64.358,0,0,0,2.867-9.992l1.6.059-.887,27.464H486.5v-1.6a22.915,22.915,0,0,0,6.386-1.094,11.453,11.453,0,0,0,4.375-2.9,11.776,11.776,0,0,0,2.927-5.617,49.892,49.892,0,0,0,.8-10.436V303.37a49.7,49.7,0,0,0-.8-10.436,11.776,11.776,0,0,0-2.927-5.617,11.036,11.036,0,0,0-4.316-2.9,22.137,22.137,0,0,0-6.445-1.094v-1.6h74.113Z" transform="translate(-351.13 -275.64)" fill="#fff"/>
    </g>
    <g transform="matrix(1, 0, 0, 1, 754.99, 508.2)" filter="url(#Path_36889)">
      <path id="Path_36889-2" data-name="Path 36889" d="M516.26,375.916v-1.6a21,21,0,0,0,6.445-1.153,11.637,11.637,0,0,0,4.316-2.868,11.122,11.122,0,0,0,2.956-5.587,52.363,52.363,0,0,0,.769-10.495V303.369a52.77,52.77,0,0,0-.769-10.495,11.353,11.353,0,0,0-2.956-5.587,10.923,10.923,0,0,0-4.346-2.9,22.288,22.288,0,0,0-6.415-1.094v-1.6h45.32c4.612,0,7.6.059,9.046.148a29.727,29.727,0,0,1,13.037,3.725,19.425,19.425,0,0,1,6.947,7.243,20.768,20.768,0,0,1,2.454,10.081q0,9.046-5.587,14.84a18.891,18.891,0,0,1-4.552,3.547,53.028,53.028,0,0,1-7.391,3.134,61.968,61.968,0,0,1,10.288,2.424,23.737,23.737,0,0,1,6.622,3.666,24.37,24.37,0,0,1,6.858,8.928,27.482,27.482,0,0,1,2.454,11.559,25.8,25.8,0,0,1-2.513,11.47,21.569,21.569,0,0,1-7.006,8.366,25.282,25.282,0,0,1-9.7,3.932,86.854,86.854,0,0,1-15.816,1.094H516.26Zm29.592-92v40.974h5.587a59.363,59.363,0,0,0,8.13-.562,34.353,34.353,0,0,0,5.883-1.3,15.331,15.331,0,0,0,4.109-2.069,17.461,17.461,0,0,0,5.41-6.711,21.325,21.325,0,0,0,1.892-9.076,25.288,25.288,0,0,0-1.981-9.963,17.954,17.954,0,0,0-5.2-7.332,15.949,15.949,0,0,0-6.445-3.1,52.97,52.97,0,0,0-11-.828h-6.386Zm0,43.1v28.41a39.343,39.343,0,0,0,.709,8.337,13.6,13.6,0,0,0,2.395,5.38q3.5,4.612,12.062,4.612,11.086,0,17.56-6.06,6.43-6.075,6.445-16.555A30.591,30.591,0,0,0,583.012,340a18.6,18.6,0,0,0-5.38-7.893q-6.208-5.1-19.452-5.114H545.852Z" transform="translate(-292.91 -275.7)" fill="#fff"/>
    </g>
  </g>
</svg>
