<svg xmlns="http://www.w3.org/2000/svg" width="187.867" height="185.285" viewBox="0 0 187.867 185.285">
  <g id="Group_42972" data-name="Group 42972" transform="translate(-1415.776 -1372.338)">
    <circle id="Ellipse_445" data-name="Ellipse 445" cx="92.643" cy="92.643" r="92.643" transform="translate(1418.357 1372.338)" fill="#f39923"/>
    <g id="svgexport-7_4_" data-name="svgexport-7 (4)" transform="translate(1404.461 1371.533)">
      <path id="Path_45751" data-name="Path 45751" d="M99.627,198.488H136.4v20.593H99.627Z" transform="translate(-31.086 -67.824)" fill="#939598"/>
      <path id="Path_45752" data-name="Path 45752" d="M133.158,198.488V212.6a3.24,3.24,0,0,1-3.24,3.24H99.627v3.24H136.4V198.488Z" transform="translate(-31.086 -67.824)" fill="#808285"/>
      <path id="Path_45753" data-name="Path 45753" d="M73.577,243.18h68.248a3.24,3.24,0,0,0,2.9-4.693l-2.331-4.646a6.479,6.479,0,0,0-5.792-3.574H78.8a6.481,6.481,0,0,0-5.792,3.573l-2.332,4.646a3.24,3.24,0,0,0,2.9,4.693Z" transform="translate(-20.774 -79.01)" fill="#58595b"/>
      <path id="Path_45754" data-name="Path 45754" d="M144.725,238.8l-2.332-4.646a6.474,6.474,0,0,0-3.115-2.991l2.206,4.4a3.24,3.24,0,0,1-2.9,4.693H70.343a3.239,3.239,0,0,0,3.237,3.24h68.248A3.24,3.24,0,0,0,144.725,238.8Z" transform="translate(-20.778 -79.327)" fill="#414042"/>
      <path id="Path_45755" data-name="Path 45755" d="M17.8,139.953H156.059a6.48,6.48,0,0,0,6.48-6.48v-94.8a6.48,6.48,0,0,0-6.48-6.48H17.8a6.48,6.48,0,0,0-6.48,6.48v94.8A6.48,6.48,0,0,0,17.8,139.953Z" transform="translate(0 -9.29)" fill="#58595b"/>
      <path id="Path_45756" data-name="Path 45756" d="M159.035,33.087a6.448,6.448,0,0,1,.577,2.663v94.8a6.48,6.48,0,0,1-6.48,6.48H14.868a6.45,6.45,0,0,1-2.663-.577,6.476,6.476,0,0,0,5.9,3.817H156.372a6.48,6.48,0,0,0,6.48-6.48V38.99a6.476,6.476,0,0,0-3.817-5.9Z" transform="translate(-0.313 -9.603)" fill="#414042"/>
      <path id="Path_45757" data-name="Path 45757" d="M129.454,186.269H116.926a2.592,2.592,0,1,1,0-5.184h12.528a2.592,2.592,0,1,1,0,5.184Z" transform="translate(-36.263 -61.698)" fill="#b2b0ad"/>
      <path id="Path_45758" data-name="Path 45758" d="M23.069,125.547H156.78a3.24,3.24,0,0,0,3.24-3.24V44.7a3.24,3.24,0,0,0-3.24-3.24H23.069a3.24,3.24,0,0,0-3.24,3.24v77.605a3.239,3.239,0,0,0,3.24,3.239Z" transform="translate(-2.997 -12.551)" fill="#478cf7"/>
      <path id="Path_45759" data-name="Path 45759" d="M25.125,113.879a1.3,1.3,0,0,1-1.3-1.3V75a1.3,1.3,0,0,1,2.592,0v37.584A1.3,1.3,0,0,1,25.125,113.879Zm0-42.768a1.3,1.3,0,0,1-1.3-1.3v-.324a1.3,1.3,0,0,1,2.592,0v.324A1.3,1.3,0,0,1,25.125,71.111Z" transform="translate(-4.405 -21.961)" fill="#5e9cf7"/>
      <path id="Path_45760" data-name="Path 45760" d="M156.779,41.462h-3.24v74.365a3.24,3.24,0,0,1-3.24,3.24H19.829v3.24a3.24,3.24,0,0,0,3.24,3.24H156.78a3.24,3.24,0,0,0,3.24-3.24V44.7A3.24,3.24,0,0,0,156.779,41.462Z" transform="translate(-2.997 -12.551)" fill="#377de2"/>
      <path id="Path_45761" data-name="Path 45761" d="M156.779,41.462v77.6a3.24,3.24,0,0,1-3.24,3.24H19.829a3.24,3.24,0,0,0,3.24,3.24H156.78a3.24,3.24,0,0,0,3.24-3.24V44.7A3.24,3.24,0,0,0,156.779,41.462Z" transform="translate(-2.997 -12.551)" fill="#2266d3"/>
      <path id="Path_45762" data-name="Path 45762" d="M125.626,113.406H65.741a1.3,1.3,0,1,1,0-2.592h59.885a1.3,1.3,0,0,1,0,2.592Zm-66.974,0H41.127a1.3,1.3,0,1,1,0-2.592H58.652a1.3,1.3,0,1,1,0,2.592Zm94.15,8.271h-18.09a1.3,1.3,0,1,1,0-2.592H152.8a1.3,1.3,0,0,1,0,2.592Zm-24.193,0H47.034a1.3,1.3,0,1,1,0-2.592h81.575a1.3,1.3,0,0,1,0,2.592Zm24.193,8.271h-84a1.3,1.3,0,1,1,0-2.592h84a1.3,1.3,0,1,1,0,2.592Zm-91.2,0H47.034a1.3,1.3,0,1,1,0-2.592H61.606a1.3,1.3,0,1,1,0,2.592Zm64.02,8.271H61.606a1.3,1.3,0,0,1,0-2.592h64.021a1.3,1.3,0,0,1,0,2.592Zm-68.746,0H41.127a1.3,1.3,0,1,1,0-2.592H56.881a1.3,1.3,0,0,1,0,2.592Z" transform="translate(-10.038 -36.963)" fill="#ffc91d"/>
      <path id="Path_45763" data-name="Path 45763" d="M55.487,76.658a1.288,1.288,0,0,1-.607-.152L40.519,68.877a1.295,1.295,0,0,1,0-2.289L54.881,58.96A1.3,1.3,0,1,1,56.1,61.249L43.889,67.733,56.1,74.217a1.3,1.3,0,0,1-.608,2.441Zm16.624,0a1.3,1.3,0,0,1-.609-2.441L83.71,67.733,71.5,61.249a1.3,1.3,0,1,1,1.216-2.289l14.362,7.628a1.3,1.3,0,0,1,0,2.289L72.718,76.506A1.278,1.278,0,0,1,72.112,76.658ZM59.23,80.9a1.3,1.3,0,0,1-1.209-1.762L67.161,55.4a1.3,1.3,0,1,1,2.418.932L60.439,80.065a1.3,1.3,0,0,1-1.209.831Z" transform="translate(-10.037 -17.165)" fill="#fff"/>
      <path id="Path_45764" data-name="Path 45764" d="M160.837,69.672c-14.141,0-25.606-3.535-25.606-7.9V76c0,4.361,11.464,7.9,25.606,7.9s25.606-3.535,25.606-7.9V61.775C186.443,66.136,174.979,69.672,160.837,69.672Z" transform="translate(-43.618 -19.701)" fill="#a54af4"/>
      <path id="Path_45765" data-name="Path 45765" d="M184.066,65.183V73.5c0,4.361-11.464,7.9-25.606,7.9-10,0-18.659-1.77-22.873-4.347,1.661,3.866,12.385,6.85,25.375,6.85,14.141,0,25.606-3.535,25.606-7.9V61.776C186.568,63,185.669,64.152,184.066,65.183Z" transform="translate(-43.744 -19.702)" fill="#893add"/>
      <circle id="Ellipse_438" data-name="Ellipse 438" cx="2.276" cy="2.276" r="2.276" transform="translate(96.983 51.687)" fill="#ffc91d"/>
      <circle id="Ellipse_439" data-name="Ellipse 439" cx="2.276" cy="2.276" r="2.276" transform="translate(105.444 53.912)" fill="#ffc91d"/>
      <path id="Path_45766" data-name="Path 45766" d="M160.837,47.719c-14.141,0-25.606-3.535-25.606-7.9V54.048c0,4.361,11.464,7.9,25.606,7.9s25.606-3.535,25.606-7.9V39.822C186.443,44.183,174.979,47.719,160.837,47.719Z" transform="translate(-43.618 -11.974)" fill="#a54af4"/>
      <path id="Path_45767" data-name="Path 45767" d="M184.066,43.23v8.316c0,4.361-11.464,7.9-25.606,7.9-10,0-18.659-1.77-22.873-4.348,1.661,3.866,12.385,6.85,25.375,6.85,14.141,0,25.606-3.535,25.606-7.9V39.822c0,1.221-.9,2.376-2.5,3.408Z" transform="translate(-43.744 -11.974)" fill="#893add"/>
      <circle id="Ellipse_440" data-name="Ellipse 440" cx="2.276" cy="2.276" r="2.276" transform="translate(96.983 37.462)" fill="#ffc91d"/>
      <circle id="Ellipse_441" data-name="Ellipse 441" cx="2.276" cy="2.276" r="2.276" transform="translate(105.444 39.686)" fill="#ffc91d"/>
      <path id="Path_45768" data-name="Path 45768" d="M160.837,25.888c-14.141,0-25.606-3.535-25.606-7.9V32.138c0,4.361,11.464,7.9,25.606,7.9s25.606-3.535,25.606-7.9V17.991c0,4.361-11.464,7.9-25.606,7.9Z" transform="translate(-43.618 -4.289)" fill="#a54af4"/>
      <path id="Path_45769" data-name="Path 45769" d="M184.066,21.4v8.237c0,4.361-11.464,7.9-25.606,7.9-10,0-18.659-1.769-22.873-4.347,1.661,3.866,12.385,6.85,25.375,6.85,14.141,0,25.606-3.535,25.606-7.9V17.992C186.568,19.212,185.669,20.368,184.066,21.4Z" transform="translate(-43.744 -4.29)" fill="#893add"/>
      <circle id="Ellipse_442" data-name="Ellipse 442" cx="2.276" cy="2.276" r="2.276" transform="translate(96.983 23.237)" fill="#ffc91d"/>
      <circle id="Ellipse_443" data-name="Ellipse 443" cx="2.276" cy="2.276" r="2.276" transform="translate(105.444 25.461)" fill="#ffc91d"/>
      <ellipse id="Ellipse_444" data-name="Ellipse 444" cx="25.606" cy="7.897" rx="25.606" ry="7.897" transform="translate(91.613 5.805)" fill="#893add"/>
      <path id="Path_45770" data-name="Path 45770" d="M183.836,12.515a2.644,2.644,0,0,1,.231,1.047c0,4.361-11.464,7.9-25.606,7.9-10,0-18.659-1.77-22.872-4.348,1.661,3.866,12.385,6.85,25.375,6.85,14.141,0,25.606-3.535,25.606-7.9,0-1.277-.989-2.481-2.733-3.548Z" transform="translate(-43.744 -2.362)" fill="#6c2bc1"/>
    </g>
  </g>
</svg>
