<svg xmlns="http://www.w3.org/2000/svg" width="194.643" height="185.285" viewBox="0 0 194.643 185.285">
  <g id="svgexport-7_2_" data-name="svgexport-7 (2)" transform="translate(0 -3.338)">
    <circle id="Ellipse_429" data-name="Ellipse 429" cx="92.643" cy="92.643" r="92.643" transform="translate(9.357 3.338)" fill="#f39923"/>
    <path id="Path_45711" data-name="Path 45711" d="M174.63,379.83h36.009v15.394H174.63Z" transform="translate(-116.406 -245.856)" fill="#445ea0"/>
    <path id="Path_45712" data-name="Path 45712" d="M174.63,379.83h6.616v15.394H174.63Z" transform="translate(-116.406 -245.856)" fill="#2e4c89"/>
    <path id="Path_45713" data-name="Path 45713" d="M193.816,433.335A1.672,1.672,0,0,1,192.149,435H125.8a1.672,1.672,0,0,1-1.667-1.667v-6.668A1.672,1.672,0,0,1,125.8,425h66.351a1.672,1.672,0,0,1,1.667,1.667Z" transform="translate(-82.744 -275.966)" fill="#293d7c"/>
    <path id="Path_45714" data-name="Path 45714" d="M130.747,433.335v-6.668A1.672,1.672,0,0,1,132.414,425H125.8a1.672,1.672,0,0,0-1.667,1.667v6.668A1.672,1.672,0,0,0,125.8,435h6.616A1.672,1.672,0,0,1,130.747,433.335Z" transform="translate(-82.744 -275.966)" fill="#1a2b63"/>
    <path id="Path_45715" data-name="Path 45715" d="M0,332.871a3.344,3.344,0,0,0,3.334,3.334H103.417V313.883H0Z" transform="translate(0 -201.897)" fill="#293d7c"/>
    <path id="Path_45716" data-name="Path 45716" d="M6.616,332.871V313.883H0v18.988a3.344,3.344,0,0,0,3.334,3.334H9.95A3.344,3.344,0,0,1,6.616,332.871Z" transform="translate(0 -201.897)" fill="#1a2b63"/>
    <path id="Path_45717" data-name="Path 45717" d="M103.417,132.663a1.335,1.335,0,0,1,1.334-1.334h47.708V59.138a3.675,3.675,0,0,0-3.665-3.665H3.665A3.676,3.676,0,0,0,0,59.138v82.826H103.417Z" transform="translate(0 -29.645)" fill="#445ea0"/>
    <path id="Path_45718" data-name="Path 45718" d="M118.071,147.318a1.335,1.335,0,0,1,1.334-1.334h40.379V79.124a1.672,1.672,0,0,0-1.667-1.667H23.651a1.672,1.672,0,0,0-1.667,1.667v68.5a1.672,1.672,0,0,0,1.667,1.667h94.42v-1.971Z" transform="translate(-14.654 -44.299)" fill="#eef6ff"/>
    <circle id="Ellipse_430" data-name="Ellipse 430" cx="4.638" cy="4.638" r="4.638" transform="translate(71.591 118.793)" fill="#445ea0"/>
    <path id="Path_45719" data-name="Path 45719" d="M304.07,154.57a1.672,1.672,0,0,1-1.667,1.667H249.571a1.672,1.672,0,0,1-1.667-1.667V130.325a1.672,1.672,0,0,1,1.667-1.667H302.4a1.672,1.672,0,0,1,1.667,1.667Z" transform="translate(-165.249 -78.429)" fill="#ffaf10"/>
    <path id="Path_45720" data-name="Path 45720" d="M254.521,154.57V130.325a1.672,1.672,0,0,1,1.667-1.667h-6.616a1.672,1.672,0,0,0-1.667,1.667V154.57a1.672,1.672,0,0,0,1.667,1.667h6.616A1.672,1.672,0,0,1,254.521,154.57Z" transform="translate(-165.25 -78.429)" fill="#ff9518"/>
    <path id="Path_45721" data-name="Path 45721" d="M265.529,230.122H251.155a2.5,2.5,0,1,1,0-5h14.374a2.5,2.5,0,0,1,0,5Zm0,7.6H251.155a2.5,2.5,0,1,1,0-5h14.374a2.5,2.5,0,0,1,0,5Zm17.342-7.6H272.182a2.5,2.5,0,0,1,0-5h10.689a2.5,2.5,0,0,1,0,5Zm0,7.6H272.182a2.5,2.5,0,0,1,0-5h10.689a2.5,2.5,0,0,1,0,5Zm20.169-7.6H289.425a2.5,2.5,0,0,1,0-5H303.04a2.5,2.5,0,0,1,0,5Zm0,7.6H289.425a2.5,2.5,0,0,1,0-5H303.04a2.5,2.5,0,0,1,0,5Z" transform="translate(-165.749 -142.73)" fill="#c3ddf4"/>
    <path id="Path_45722" data-name="Path 45722" d="M345.367,100.419a1.672,1.672,0,0,1-1.667,1.667h-3.667a1.672,1.672,0,0,1-1.667-1.667V96.752a1.672,1.672,0,0,1,1.667-1.667H343.7a1.672,1.672,0,0,1,1.667,1.667Zm9.335,0a1.672,1.672,0,0,1-1.667,1.667h-3.667a1.672,1.672,0,0,1-1.667-1.667V96.752a1.672,1.672,0,0,1,1.667-1.667h3.667a1.672,1.672,0,0,1,1.667,1.667Zm9.335,0a1.672,1.672,0,0,1-1.667,1.667H358.7a1.672,1.672,0,0,1-1.667-1.667V96.752a1.672,1.672,0,0,1,1.667-1.667h3.667a1.672,1.672,0,0,1,1.667,1.667Z" transform="translate(-225.55 -56.05)" fill="#ef8318"/>
    <path id="Path_45723" data-name="Path 45723" d="M92.076,156.351h-3a2.5,2.5,0,1,1,0-5h3a2.5,2.5,0,0,1,0,5Zm-11.336,0h-3a2.5,2.5,0,1,1,0-5h3a2.5,2.5,0,0,1,0,5Zm-11.336,0h-3a2.5,2.5,0,1,1,0-5h3a2.5,2.5,0,1,1,0,5Zm-11.336,0h-3a2.5,2.5,0,0,1,0-5h3a2.5,2.5,0,1,1,0,5Zm43.761-10.3a2.5,2.5,0,0,1-2.5-2.5v-3a2.5,2.5,0,1,1,5,0v3a2.5,2.5,0,0,1-2.5,2.5Zm0-11.336a2.5,2.5,0,0,1-2.5-2.5v-3a2.5,2.5,0,0,1,5,0v3a2.5,2.5,0,0,1-2.5,2.5Zm0-11.336a2.5,2.5,0,0,1-2.5-2.5v-3a2.5,2.5,0,0,1,5,0v3a2.5,2.5,0,0,1-2.5,2.5ZM45.148,146.049a2.5,2.5,0,0,1-2.5-2.5v-3a2.5,2.5,0,1,1,5,0v3A2.5,2.5,0,0,1,45.148,146.049Zm0-11.336a2.5,2.5,0,0,1-2.5-2.5v-3a2.5,2.5,0,0,1,5,0v3A2.5,2.5,0,0,1,45.148,134.712Zm0-11.336a2.5,2.5,0,0,1-2.5-2.5v-3a2.5,2.5,0,0,1,5,0v3A2.5,2.5,0,0,1,45.148,123.376Zm46.929-12.37h-3a2.5,2.5,0,1,1,0-5h3a2.5,2.5,0,0,1,0,5Zm-11.336,0h-3a2.5,2.5,0,1,1,0-5h3a2.5,2.5,0,0,1,0,5Zm-11.336,0h-3a2.5,2.5,0,1,1,0-5h3a2.5,2.5,0,1,1,0,5Zm-11.336,0h-3a2.5,2.5,0,0,1,0-5h3a2.5,2.5,0,0,1,0,5Z" transform="translate(-28.428 -63.329)" fill="#69cdff"/>
    <path id="Path_45724" data-name="Path 45724" d="M113.492,163.846a1.672,1.672,0,0,1-1.667,1.667H71.815a1.672,1.672,0,0,1-1.667-1.667V135.172a1.672,1.672,0,0,1,1.667-1.667h40.01a1.672,1.672,0,0,1,1.667,1.667Z" transform="translate(-46.76 -81.66)" fill="#5dc1d8"/>
    <path id="Path_45725" data-name="Path 45725" d="M76.763,163.846V135.172a1.672,1.672,0,0,1,1.667-1.667H71.814a1.672,1.672,0,0,0-1.667,1.667v28.674a1.672,1.672,0,0,0,1.667,1.667H78.43A1.672,1.672,0,0,1,76.763,163.846Z" transform="translate(-46.759 -81.66)" fill="#28a5a5"/>
    <path id="Path_45726" data-name="Path 45726" d="M102.828,103.678a1.672,1.672,0,0,1-1.667,1.667h-7a1.672,1.672,0,0,1-1.667-1.667v-7a1.672,1.672,0,0,1,1.667-1.667h7a1.672,1.672,0,0,1,1.667,1.667Zm-55.347.667a1.672,1.672,0,0,1-1.667,1.667h-7a1.672,1.672,0,0,1-1.667-1.667v-7a1.672,1.672,0,0,1,1.667-1.667h7a1.672,1.672,0,0,1,1.667,1.667Zm55.347,45.969a1.672,1.672,0,0,1-1.667,1.667h-7a1.672,1.672,0,0,1-1.667-1.667v-7a1.672,1.672,0,0,1,1.667-1.667h7a1.672,1.672,0,0,1,1.667,1.667Zm-55.347,0a1.672,1.672,0,0,1-1.667,1.667h-7a1.672,1.672,0,0,1-1.667-1.667v-7a1.672,1.672,0,0,1,1.667-1.667h7a1.672,1.672,0,0,1,1.667,1.667Z" transform="translate(-24.76 -55.999)" fill="#52bbef"/>
    <path id="Path_45727" data-name="Path 45727" d="M96.167,103.678v-7a1.672,1.672,0,0,1,1.667-1.667H94.159a1.672,1.672,0,0,0-1.667,1.667v7a1.672,1.672,0,0,0,1.667,1.667h3.675A1.672,1.672,0,0,1,96.167,103.678Zm-55.347.667v-7a1.672,1.672,0,0,1,1.667-1.667H38.812a1.672,1.672,0,0,0-1.667,1.667v7a1.672,1.672,0,0,0,1.667,1.667h3.675A1.672,1.672,0,0,1,40.82,104.345Zm55.347,45.969v-7a1.672,1.672,0,0,1,1.667-1.667H94.159a1.672,1.672,0,0,0-1.667,1.667v7a1.672,1.672,0,0,0,1.667,1.667h3.675A1.672,1.672,0,0,1,96.167,150.314Zm-55.347,0v-7a1.672,1.672,0,0,1,1.667-1.667H38.812a1.672,1.672,0,0,0-1.667,1.667v7a1.672,1.672,0,0,0,1.667,1.667h3.675A1.672,1.672,0,0,1,40.82,150.314Z" transform="translate(-24.76 -55.999)" fill="#1e99d6"/>
    <path id="Path_45728" data-name="Path 45728" d="M351.279,310.257a.462.462,0,0,1-.04-.247l.04,0a.606.606,0,0,1,.2.045l14.038,5.156V283.655a1.672,1.672,0,0,0-1.667-1.667H310.841a1.672,1.672,0,0,0-1.667,1.667v38.276a1.672,1.672,0,0,0,1.667,1.667h45.338l-4.9-13.342Z" transform="translate(-206.091 -180.636)" fill="#5dc1d8"/>
    <path id="Path_45729" data-name="Path 45729" d="M315.791,321.93V283.654a1.672,1.672,0,0,1,1.667-1.667h-6.616a1.672,1.672,0,0,0-1.667,1.667V321.93a1.672,1.672,0,0,0,1.667,1.667h6.616A1.672,1.672,0,0,1,315.791,321.93Z" transform="translate(-206.091 -180.636)" fill="#28a5a5"/>
    <path id="Path_45730" data-name="Path 45730" d="M435.021,365.092c-.549-.2-.834.083-.632.632l8.79,23.933a.629.629,0,0,0,1.119.246l4.667-4.667a1.068,1.068,0,0,1,1.505,0l5.377,5.378a1.068,1.068,0,0,0,1.505,0l2.559-2.559a1.068,1.068,0,0,0,0-1.505l-5.378-5.378a1.068,1.068,0,0,1,0-1.505L459.2,375a.629.629,0,0,0-.246-1.119Z" transform="translate(-289.514 -235.989)" fill="#293d7c"/>
  </g>
</svg>
